<svg id="Layer_1" enable-background="new 0 0 510.006 510.006" height="512" viewBox="0 0 510.006 510.006" width="512" xmlns="http://www.w3.org/2000/svg"><path d="m423.146 240.296-20.008-150.06h-73.133v30h46.867l6 45h-188.314l-21-45h36.447v-30h-105v30h35.447l25.402 54.432-43.053 71.755c-57.758-23.45-123.525 21.28-122.795 83.814 3.288 110.419 157.62 122.486 178.743 14.999h82.62l127.868-132.277 4.172 31.29c-36.683 11.37-63.402 45.617-63.402 85.987 4.944 119.398 175.075 119.362 180-.001-.002-48.574-38.684-88.277-86.861-89.939zm-241.986-32.83 50.292 107.77h-52.704c-3.573-21.203-14.582-39.911-30.247-53.339zm-48.423 80.704c7.295 7.41 12.691 16.695 15.37 27.065h-31.609zm-42.732 102.065c-33.084 0-60-26.916-60-60-.645-39.387 39.555-69.257 77.022-57.525l-43.515 72.525h84.594c-6.677 25.85-30.194 45-58.101 45zm169.371-86.104-50.818-108.896h156.084zm160.629 86.104c-66.138-1.125-82.682-90.344-22.544-115.588l7.676 57.571 29.736-3.965-7.676-57.571c74.058 11.316 68.081 117.019-7.192 119.553z"/></svg>