<svg id="Layer_1" enable-background="new 0 0 512 512" height="512" viewBox="0 0 512 512" width="512" xmlns="http://www.w3.org/2000/svg"><g><path d="m79.267 176.733h-64.267c-8.284 0-15 6.716-15 15v160.667c0 8.284 6.716 15 15 15h64.267c8.284 0 15-6.716 15-15v-160.667c0-8.284-6.716-15-15-15z"/><path d="m360.434 350.267c8.284 0 15-6.716 15-15v-33.2h1.066c8.284 0 15-6.716 15-15s-6.716-15-15-15h-1.066v-81.4c0-6.066-3.654-11.536-9.259-13.858-5.603-2.322-12.055-1.04-16.346 3.25-.001 0-46.833 46.817-69.037 69.005-9.973 10.027-15.692 23.879-15.692 38.003 0 8.284 6.716 15 15 15h65.334v33.2c0 8.284 6.715 15 15 15zm-60.029-78.2c.51-.632 1.052-1.238 1.625-1.815 11.235-11.227 28.806-28.789 43.403-43.381v45.196z"/><path d="m238.866 335.267c0-8.284-6.716-15-15-15h-60.027c.509-.632 1.051-1.239 1.624-1.815 22.173-22.157 69.008-68.977 69.008-68.977 2.814-2.813 4.396-6.629 4.396-10.608v-8.033c0-30.419-24.747-55.167-55.166-55.167-30.708 0-55.167 24.874-55.167 55.15v.016c0 8.284 6.716 14.992 15 14.992s15-6.724 15-15.008c0-13.761 11.08-25.15 25.167-25.15 13.877 0 25.166 11.29 25.166 25.167v1.818c-12.163 12.159-46.564 46.547-64.642 64.613-9.973 10.027-15.691 23.879-15.691 38.002 0 8.284 6.716 15 15 15h80.333c8.283 0 14.999-6.716 14.999-15z"/><path d="m256 30c75.286 0 138.722 51.708 156.661 121.475 6.047-3.028 12.862-4.742 20.073-4.742h9.653c-20.302-84.081-96.16-146.733-186.387-146.733s-166.085 62.652-186.386 146.733h9.653c7.211 0 14.025 1.714 20.073 4.742 17.938-69.767 81.374-121.475 156.66-121.475z"/><path d="m409.731 391.057c-14.994 34.567-49.449 58.81-89.464 58.81h-19.594c-6.281-18.655-23.927-32.133-44.672-32.133-25.989 0-47.134 21.144-47.134 47.133s21.144 47.133 47.133 47.133c20.745 0 38.391-13.478 44.672-32.133h19.594c54.451 0 101.029-34.323 119.256-82.467h-6.789c-8.4 0-16.266-2.32-23.002-6.343z"/><path d="m497 176.733h-64.267c-8.284 0-15 6.716-15 15v160.667c0 8.284 6.716 15 15 15h64.267c8.284 0 15-6.716 15-15v-160.667c0-8.284-6.716-15-15-15z"/></g></svg>