<svg id="Capa_1" enable-background="new 0 0 510 510" height="512" viewBox="0 0 510 510" width="512" xmlns="http://www.w3.org/2000/svg"><g><path d="m90 0v227.983c0 39.71 32.307 72.017 72.017 72.017h31.408l-13.425 134.252v.748c0 41.355 33.645 75 75 75s75-33.645 75-75v-.748l-13.425-134.252h31.408c39.71 0 72.017-32.307 72.017-72.017v-227.983zm60 30v75h30v-75h30v75h30v-75h30v75h30v-75h30v75h30v-75h30v180h-270v-180zm105 450c-19.555 0-36.224-12.542-42.416-30h84.832c-6.192 17.458-22.861 30-42.416 30zm92.983-210h-64.559l15.001 150h-86.852l15.001-150h-64.559c-18.993 0-35.074-12.671-40.257-30h266.48c-5.18 17.329-21.262 30-40.255 30z"/></g></svg>