<svg id="Layer_1" enable-background="new 0 0 510 510" height="512" viewBox="0 0 510 510" width="512" xmlns="http://www.w3.org/2000/svg"><g id="XMLID_1834_"><path id="XMLID_1838_" d="m0 0h510v60h-510z"/><path id="XMLID_1905_" d="m240 165h150v90h-150z"/><path id="XMLID_1914_" d="m30 390h155.729l-45 90h-35.729v30h54.27l22.5-45h58.23v45h30v-45h58.229l22.5 45h54.271v-30h-35.73l-45-90h155.73v-300h-450zm166.77 45 22.5-45h20.73v45zm116.46 0h-43.23v-45h20.73zm-103.23-300h210v150h-210zm-120 0h90v30h-90zm0 60h90v30h-90zm0 60h90v30h-90zm0 60h330v30h-330z"/></g></svg>