<svg id="Layer_1" data-name="Layer 1" xmlns="http://www.w3.org/2000/svg" viewBox="0 0 332.53 131.7"><defs><style>.cls-1,.cls-2{fill:#f15c24;}.cls-1{fill-rule:evenodd;}</style></defs><title>Onno Logo Trademark 2</title><path class="cls-1" d="M409.75,303.06a2.11,2.11,0,1,0,2.11,2.11A2.1,2.1,0,0,0,409.75,303.06Z" transform="translate(-372.26 -261.84)"/><path class="cls-1" d="M431.67,303.06a2.11,2.11,0,1,0,2.1,2.11A2.1,2.1,0,0,0,431.67,303.06Z" transform="translate(-372.26 -261.84)"/><path class="cls-2" d="M464.85,296.09a1.1,1.1,0,0,0-1.15,1v6.19h-1.43v-6.19a1.15,1.15,0,0,0-2.29,0v6.19h-1.44v-6.19a1.15,1.15,0,0,0-2.28,0v7h0c0,2.35,1,4.49,3.51,5.06l0,.27A39.07,39.07,0,0,1,384,315.77a1.32,1.32,0,1,0-2.5.82,41.7,41.7,0,0,0,80.82-6.77c0-.05,0-.26.06-.43l0-.23h0c2.51-.54,3.54-2.7,3.57-5.07h0v-7A1.09,1.09,0,0,0,464.85,296.09Z" transform="translate(-372.26 -261.84)"/><path class="cls-2" d="M382.15,300.9a39.06,39.06,0,0,1,76.74-7.34,1.33,1.33,0,0,0,1.61.94,1.31,1.31,0,0,0,.93-1.61,41.69,41.69,0,0,0-81.91,8c-7.43,1.18-3.55,13.33,1.22,13.33S389.33,302.25,382.15,300.9Zm-1.41,2.31a15.56,15.56,0,0,0-2.69.24,3.15,3.15,0,0,1,5.38,0A15.56,15.56,0,0,0,380.74,303.21Z" transform="translate(-372.26 -261.84)"/><path class="cls-1" d="M455.88,330.05q-1.72-12.53-3.62-25c-1-6.58-2.33-13.14-6.34-18.63-7-9.66-16.33-15.45-28.47-13.8-12.7,1.73-21.69,9.13-25.54,21.58-2.11,6.81-2.83,14.06-4.13,21.12-.9,4.91-1.7,9.84-2.55,14.77h.06c-1.38,6.16-2.22,12.52-4.34,18.41A86.79,86.79,0,0,1,376.59,359a72.78,72.78,0,0,0-3.8,8.61c-1.25,3.44,0,4.76.65,5.17a11.74,11.74,0,0,0,5.47,2,18.72,18.72,0,0,0,7.12-.4,64.61,64.61,0,0,0,15.27-5.79c4.84-2.66,9-3.38,11.45,3.12,3,8.09,8.28,6.41,12.3,1.68,3.84-4.52,6.42-10.23,9.15-15.64,2.81-5.59,5.27-9.86,11.84-3.69,5.13,4.82,8.53.91,9.56-3.95A64.09,64.09,0,0,0,455.88,330.05ZM416,300.74a1,1,0,0,1-1.38-.45c-.11-.18-.19-.36-.3-.54a3.91,3.91,0,0,0-6.5-.39c-.22.3-.39.64-.6.95a1,1,0,0,1-1.33.37,1,1,0,0,1-.45-1.37,6,6,0,0,1,5.79-3.59,2.77,2.77,0,0,1,.3,0,5.86,5.86,0,0,1,4.92,3.58A1,1,0,0,1,416,300.74Zm9.13,6a1.36,1.36,0,0,1,0,.2,3.93,3.93,0,0,1-7.83-.39,1,1,0,0,1,.92-1.14,1,1,0,0,1,1.12.93l.09.5a1.86,1.86,0,0,0,3.67-.34,1,1,0,1,1,2.05.24Zm11.33-6a1,1,0,0,1-1.22-.35,4.61,4.61,0,0,1-.33-.58,3.92,3.92,0,0,0-6.61-.43c-.21.29-.36.62-.57.91a1,1,0,0,1-1.5.21,1.08,1.08,0,0,1-.18-1.39,5.9,5.9,0,0,1,4.92-3.43,6,6,0,0,1,4.61,1.62,4.64,4.64,0,0,1,1.47,2.28A1,1,0,0,1,436.41,300.78Z" transform="translate(-372.26 -261.84)"/><path class="cls-2" d="M502.18,338.93a24,24,0,0,1-8.81-10.24,39.64,39.64,0,0,1,0-31,24.81,24.81,0,0,1,35.15-10.24,23.53,23.53,0,0,1,8.83,10.24,40.47,40.47,0,0,1,0,31,23.53,23.53,0,0,1-8.83,10.24,25.83,25.83,0,0,1-26.34,0Zm26.46-8.61q4.71-5.94,4.72-17.12,0-10.93-4.78-17.05T515.39,290q-8.55,0-13.26,6.11t-4.72,17.05q0,11.18,4.61,17.12t13.25,5.93Q523.92,336.25,528.64,330.32Z" transform="translate(-372.26 -261.84)"/><path class="cls-2" d="M515.39,343.23A24,24,0,0,1,492.73,329a40.34,40.34,0,0,1,0-31.54A25.52,25.52,0,0,1,528.9,286.9,24.19,24.19,0,0,1,538,297.44,40.91,40.91,0,0,1,538,329a24.2,24.2,0,0,1-9.08,10.54A24.88,24.88,0,0,1,515.39,343.23Zm0-58.68A22.6,22.6,0,0,0,494,298a39,39,0,0,0,0,30.39,24.1,24.1,0,0,0,34.13,10,22.79,22.79,0,0,0,8.56-10,39.62,39.62,0,0,0,0-30.39,22.84,22.84,0,0,0-8.56-9.95A23.48,23.48,0,0,0,515.39,284.55Zm-.12,52.4c-6,0-10.62-2.09-13.81-6.21s-4.75-10-4.75-17.54c0-7.41,1.63-13.29,4.86-17.46s7.92-6.39,13.82-6.39,10.44,2.15,13.75,6.38,4.92,10.06,4.92,17.47c0,7.57-1.64,13.47-4.87,17.54S521.24,337,515.27,337Zm.12-46.22c-5.52,0-9.67,1.91-12.7,5.83s-4.58,9.54-4.58,16.64c0,7.27,1.51,12.88,4.47,16.71s7.11,5.66,12.69,5.66,9.82-1.91,12.81-5.67,4.57-9.44,4.57-16.7c0-7.1-1.56-12.7-4.63-16.63S520.82,290.73,515.39,290.73Z" transform="translate(-372.26 -261.84)"/><path class="cls-2" d="M593.3,305.76V338.7a3.74,3.74,0,0,1-.9,2.62,3.17,3.17,0,0,1-2.47,1,3.36,3.36,0,0,1-2.53-1,3.59,3.59,0,0,1-.95-2.62V306.22q0-8.39-3.26-12.22t-10.33-3.85q-8.1,0-13,5.13T555,309V338.7a3.74,3.74,0,0,1-.9,2.62,3.18,3.18,0,0,1-2.47,1,3.36,3.36,0,0,1-2.53-1,3.63,3.63,0,0,1-1-2.62v-51a3.63,3.63,0,0,1,1-2.62,3.35,3.35,0,0,1,2.53-1A3.13,3.13,0,0,1,554,285a3.59,3.59,0,0,1,.89,2.56v7.34a18.69,18.69,0,0,1,7.47-8.21,22,22,0,0,1,11.3-2.85Q593.3,283.87,593.3,305.76Z" transform="translate(-372.26 -261.84)"/><path class="cls-2" d="M589.93,343a4.07,4.07,0,0,1-3-1.21,4.25,4.25,0,0,1-1.14-3.09V306.22c0-5.4-1-9.36-3.1-11.78s-5.32-3.6-9.79-3.6c-5.17,0-9.36,1.65-12.46,4.91s-4.7,7.73-4.7,13.26V338.7a4.44,4.44,0,0,1-1.07,3.08,3.88,3.88,0,0,1-3,1.22,4,4,0,0,1-3-1.21,4.28,4.28,0,0,1-1.15-3.09v-51a4.29,4.29,0,0,1,1.15-3.09,4,4,0,0,1,3-1.21,3.86,3.86,0,0,1,2.87,1.15,4.21,4.21,0,0,1,1.09,3v4.66a19,19,0,0,1,6.41-6.12,22.84,22.84,0,0,1,11.65-2.95c13.5,0,20.35,7.6,20.35,22.58V338.7a4.44,4.44,0,0,1-1.07,3.08A3.88,3.88,0,0,1,589.93,343Zm-17.07-53.53c4.91,0,8.57,1.37,10.87,4.08s3.42,6.94,3.42,12.67V338.7a2.92,2.92,0,0,0,.77,2.15,2.64,2.64,0,0,0,2,.77,2.5,2.5,0,0,0,2-.76,3.08,3.08,0,0,0,.72-2.16V305.76c0-14.27-6.2-21.21-19-21.21a21.4,21.4,0,0,0-10.94,2.76,18,18,0,0,0-7.19,7.91L554.18,298V287.59a2.86,2.86,0,0,0-.71-2.09,2.44,2.44,0,0,0-1.84-.71,2.62,2.62,0,0,0-2,.78,2.88,2.88,0,0,0-.76,2.14v51a2.93,2.93,0,0,0,.76,2.15,2.65,2.65,0,0,0,2,.77,2.5,2.5,0,0,0,2-.76,3.08,3.08,0,0,0,.71-2.16V309c0-5.89,1.71-10.67,5.08-14.2S567.29,289.47,572.86,289.47Z" transform="translate(-372.26 -261.84)"/><path class="cls-2" d="M646.17,305.76V338.7a3.74,3.74,0,0,1-.9,2.62,3.17,3.17,0,0,1-2.47,1,3.36,3.36,0,0,1-2.53-1,3.59,3.59,0,0,1-.95-2.62V306.22q0-8.39-3.26-12.22t-10.33-3.85q-8.1,0-13,5.13T607.87,309V338.7a3.74,3.74,0,0,1-.91,2.62,3.15,3.15,0,0,1-2.47,1,3.32,3.32,0,0,1-2.52-1,3.6,3.6,0,0,1-1-2.62v-51a3.6,3.6,0,0,1,1-2.62,3.31,3.31,0,0,1,2.52-1,3.12,3.12,0,0,1,2.36.92,3.55,3.55,0,0,1,.9,2.56v7.34a18.57,18.57,0,0,1,7.47-8.21,22,22,0,0,1,11.29-2.85Q646.16,283.87,646.17,305.76Z" transform="translate(-372.26 -261.84)"/><path class="cls-2" d="M642.8,343a4,4,0,0,1-3-1.21,4.26,4.26,0,0,1-1.15-3.09V306.22c0-5.4-1-9.36-3.09-11.78s-5.32-3.6-9.79-3.6c-5.17,0-9.36,1.65-12.46,4.91s-4.7,7.73-4.7,13.26V338.7a4.4,4.4,0,0,1-1.08,3.08,3.87,3.87,0,0,1-3,1.22,4.07,4.07,0,0,1-3-1.21,4.27,4.27,0,0,1-1.14-3.09v-51a4.29,4.29,0,0,1,1.14-3.09,4.07,4.07,0,0,1,3-1.21,3.83,3.83,0,0,1,2.87,1.15,4.22,4.22,0,0,1,1.1,3v4.66a18.92,18.92,0,0,1,6.4-6.12,22.87,22.87,0,0,1,11.65-2.95c13.51,0,20.36,7.6,20.36,22.58V338.7a4.4,4.4,0,0,1-1.08,3.08A3.84,3.84,0,0,1,642.8,343Z" transform="translate(-372.26 -261.84)"/><path class="cls-2" d="M665.84,338.93A23.88,23.88,0,0,1,657,328.69a39.64,39.64,0,0,1,0-31,23.25,23.25,0,0,1,22-13.85,24.16,24.16,0,0,1,13.14,3.61A23.45,23.45,0,0,1,701,297.72a40.35,40.35,0,0,1,0,31,23.45,23.45,0,0,1-8.82,10.24,25.83,25.83,0,0,1-26.34,0Zm26.45-8.61Q697,324.38,697,313.2q0-10.93-4.77-17.05T679,290q-8.53,0-13.26,6.11t-4.71,17.05q0,11.18,4.6,17.12t13.25,5.93Q687.58,336.25,692.29,330.32Z" transform="translate(-372.26 -261.84)"/><path class="cls-2" d="M679,343.23A24,24,0,0,1,656.39,329a40.23,40.23,0,0,1,0-31.54,25.52,25.52,0,0,1,36.17-10.53,24.19,24.19,0,0,1,9.08,10.54,41,41,0,0,1,0,31.53,24.13,24.13,0,0,1-9.08,10.54A24.89,24.89,0,0,1,679,343.23Zm0-58.68A22.57,22.57,0,0,0,657.67,298a38.91,38.91,0,0,0,0,30.39,24.1,24.1,0,0,0,34.13,10,22.79,22.79,0,0,0,8.56-10,39.74,39.74,0,0,0,0-30.39,22.84,22.84,0,0,0-8.56-9.95A23.49,23.49,0,0,0,679,284.55Zm-.12,52.4c-6,0-10.61-2.09-13.81-6.21s-4.74-10-4.74-17.54c0-7.41,1.63-13.29,4.85-17.46s7.92-6.39,13.82-6.39,10.45,2.15,13.76,6.38,4.92,10.06,4.92,17.47c0,7.57-1.64,13.47-4.87,17.54S684.9,337,678.92,337Zm.12-46.22c-5.43,0-9.7,2-12.69,5.83s-4.58,9.54-4.58,16.64c0,7.27,1.5,12.89,4.47,16.71s7.1,5.66,12.68,5.66,9.83-1.91,12.82-5.67,4.57-9.44,4.57-16.7c0-7.1-1.56-12.7-4.63-16.63S684.47,290.73,679,290.73Z" transform="translate(-372.26 -261.84)"/><path class="cls-2" d="M570.58,370.41V364.5h1.49v8h-.87l-.25-1a5.06,5.06,0,0,1-3.28,1.21c-2.64,0-4.92-1.61-4.92-7V365c0-5.51,2.25-7.35,5.8-7.35a13.45,13.45,0,0,1,3.09.44c0,.45-.12,1.09-.12,1.09l-.21.11a13.7,13.7,0,0,0-2.64-.36c-2.93,0-4.4,1.44-4.4,6.2v.66c0,4.49,1.59,5.71,3.64,5.71A4.21,4.21,0,0,0,570.58,370.41Z" transform="translate(-372.26 -261.84)"/><path class="cls-2" d="M567.67,373c-2.35,0-5.17-1.26-5.17-7.26V365c0-5.18,1.92-7.59,6-7.59a13.35,13.35,0,0,1,3.15.45.24.24,0,0,1,.18.25,10.55,10.55,0,0,1-.12,1.1.24.24,0,0,1-.12.18l-.21.12a.32.32,0,0,1-.17,0,13.38,13.38,0,0,0-2.59-.35c-2.5,0-4.16,1-4.16,5.95v.66c0,4.9,1.94,5.47,3.4,5.47a3.88,3.88,0,0,0,2.42-.91v-5.8a.25.25,0,0,1,.25-.24h1.49a.25.25,0,0,1,.25.24v8a.25.25,0,0,1-.25.24h-.87a.25.25,0,0,1-.24-.18l-.15-.58A5.34,5.34,0,0,1,567.67,373Zm.88-15.13c-3.79,0-5.56,2.25-5.56,7.1v.77c0,4.49,1.58,6.77,4.68,6.77a4.7,4.7,0,0,0,3.11-1.16.28.28,0,0,1,.23-.05.24.24,0,0,1,.17.17l.21.77h.44v-7.47h-1v5.66a.26.26,0,0,1-.1.2l0,0a4.32,4.32,0,0,1-2.78,1.06c-2.62,0-3.89-1.94-3.89-5.95v-.66c0-4.57,1.35-6.44,4.65-6.44a13.59,13.59,0,0,1,2.61.34h0c0-.16.06-.47.08-.74A13.15,13.15,0,0,0,568.55,357.85Z" transform="translate(-372.26 -261.84)"/><path class="cls-2" d="M574.61,372.47V357h1.49v5.22h0a6,6,0,0,1,3.89-1.5c2.05,0,3.32,1.28,3.32,3.49v8.28h-1.5v-8c0-1.77-.87-2.46-2.23-2.46a5.76,5.76,0,0,0-3.53,1.42v9.07Z" transform="translate(-372.26 -261.84)"/><path class="cls-2" d="M583.36,372.71h-1.5a.24.24,0,0,1-.24-.24v-8c0-1.51-.63-2.21-2-2.21a5.46,5.46,0,0,0-3.28,1.29v9a.25.25,0,0,1-.25.24h-1.49a.25.25,0,0,1-.25-.24V357a.25.25,0,0,1,.25-.24h1.49a.25.25,0,0,1,.25.24v4.76a6.11,6.11,0,0,1,3.69-1.28,3.38,3.38,0,0,1,3.56,3.73v8.28A.24.24,0,0,1,583.36,372.71Zm-1.25-.49h1v-8c0-2.06-1.11-3.25-3.07-3.25a5.78,5.78,0,0,0-3.73,1.45.25.25,0,0,1-.16.06h0a.25.25,0,0,1-.24-.25v-5h-1v15h1V363.4a.25.25,0,0,1,.09-.19,6,6,0,0,1,3.68-1.47c1.62,0,2.48.93,2.48,2.7Z" transform="translate(-372.26 -261.84)"/><path class="cls-2" d="M590.38,360.7c2.86,0,4.52,2,4.52,5.55v.93c0,3.52-1.66,5.55-4.52,5.55h-.18c-2.86,0-4.52-2-4.52-5.55v-.93c0-3.52,1.66-5.55,4.52-5.55Zm3,5.29c0-2.37-.92-4-3.11-4s-3.11,1.64-3.11,4v1.48c0,2.39.92,4,3.11,4s3.11-1.59,3.11-4Z" transform="translate(-372.26 -261.84)"/><path class="cls-2" d="M590.38,373h-.18c-3,0-4.76-2.17-4.76-5.8v-.93c0-3.63,1.78-5.79,4.76-5.79h.18c3,0,4.76,2.16,4.76,5.79v.93C595.14,370.81,593.36,373,590.38,373Zm-.18-12c-2.71,0-4.27,1.94-4.27,5.31v.93c0,3.37,1.56,5.31,4.27,5.31h.18c2.72,0,4.28-1.94,4.28-5.31v-.93c0-3.37-1.56-5.31-4.28-5.31Zm.09,10.75c-2.16,0-3.35-1.5-3.35-4.22V366c0-2.74,1.19-4.25,3.35-4.25s3.36,1.51,3.36,4.25v1.48C593.65,370.19,592.45,371.69,590.29,371.69Zm0-9.46c-2.37,0-2.86,2-2.86,3.76v1.48c0,2.48,1,3.74,2.86,3.74s2.87-1.26,2.87-3.74V366C593.16,364.27,592.66,362.23,590.29,362.23Z" transform="translate(-372.26 -261.84)"/><path class="cls-2" d="M597,371.32l.23-.16a14.6,14.6,0,0,0,2.81.29c2,0,3.06-.73,3.06-2.19,0-1-.55-1.61-2.25-2l-1.34-.29c-1.87-.4-2.92-1.08-2.92-3s1.12-3.32,4.42-3.32a15.28,15.28,0,0,1,2.58.29c0,.44-.09,1-.12,1.13l-.23.1a15.07,15.07,0,0,0-2.23-.24c-2.26,0-2.93.84-2.93,2,0,1,.72,1.48,1.94,1.74l1.36.29c2.32.49,3.22,1.57,3.22,3.21,0,2.23-1.5,3.47-4.49,3.47a14.73,14.73,0,0,1-3-.28C597.09,372,597,371.32,597,371.32Z" transform="translate(-372.26 -261.84)"/><path class="cls-2" d="M600.15,373a14.41,14.41,0,0,1-3-.3.25.25,0,0,1-.19-.2c-.07-.42-.11-1.12-.11-1.15a.23.23,0,0,1,.11-.22l.23-.15a.23.23,0,0,1,.18,0,13.77,13.77,0,0,0,2.76.29c1.9,0,2.82-.64,2.82-1.95,0-.78-.35-1.37-2.07-1.75l-1.33-.29c-1.62-.35-3.12-1-3.12-3.2,0-1.07.46-3.56,4.67-3.56a15.87,15.87,0,0,1,2.63.29.24.24,0,0,1,.19.26c0,.17,0,.35,0,.53,0,.41-.05.57-.07.64a.24.24,0,0,1-.13.15l-.23.12a.26.26,0,0,1-.15,0,15.62,15.62,0,0,0-2.19-.23c-2.38,0-2.68.95-2.68,1.79,0,.48.18,1.17,1.74,1.51l1.36.28c2.33.49,3.41,1.59,3.41,3.45C604.88,371,604.06,373,600.15,373Zm-2.78-.74a14.49,14.49,0,0,0,2.78.25c2.82,0,4.25-1.09,4.25-3.23,0-1.61-.94-2.53-3-3L600,366c-1.42-.3-2.13-1-2.13-2,0-1.54,1-2.28,3.17-2.28a15.09,15.09,0,0,1,2.2.23l0,0c0-.11,0-.3,0-.46l0-.3a13.94,13.94,0,0,0-2.31-.25c-2.7,0-4.18,1.09-4.18,3.08,0,1.56.74,2.3,2.73,2.72l1.34.29c1.72.38,2.45,1.05,2.45,2.23s-.58,2.43-3.31,2.43a14.93,14.93,0,0,1-2.76-.27l0,0C597.31,371.63,597.34,372,597.37,372.24Z" transform="translate(-372.26 -261.84)"/><path class="cls-2" d="M605.79,361h1.73l.35-2.65H609V361h3.06v1.29H609v7.23c0,1.55.69,2,1.68,2a5.72,5.72,0,0,0,1.17-.13l.21.11v1.08a5.64,5.64,0,0,1-1.54.22c-2,0-3-1-3-3.21v-7.27h-1.73Z" transform="translate(-372.26 -261.84)"/><path class="cls-2" d="M610.54,373c-2.2,0-3.26-1.13-3.26-3.46v-7h-1.49a.24.24,0,0,1-.24-.24V361a.24.24,0,0,1,.24-.24h1.52l.31-2.44a.25.25,0,0,1,.25-.21H609a.24.24,0,0,1,.24.24v2.41h2.82a.24.24,0,0,1,.24.24v1.29a.24.24,0,0,1-.24.24h-2.82v7c0,1.52.69,1.73,1.44,1.73a5.55,5.55,0,0,0,1.12-.13.26.26,0,0,1,.17,0l.2.11a.25.25,0,0,1,.13.22v1.08a.24.24,0,0,1-.16.23A5.79,5.79,0,0,1,610.54,373ZM606,362h1.48a.24.24,0,0,1,.24.25v7.27c0,2.05.86,3,2.78,3a5.53,5.53,0,0,0,1.29-.16v-.76a5.61,5.61,0,0,1-1.13.12c-1.3,0-1.93-.72-1.93-2.21v-7.23A.25.25,0,0,1,609,362h2.81v-.79H609a.25.25,0,0,1-.25-.25v-2.41h-.69l-.32,2.45a.24.24,0,0,1-.24.21H606Z" transform="translate(-372.26 -261.84)"/><path class="cls-2" d="M623.92,372.47l-4.29-6.73h-1.38v6.73h-1.5v-14.6h1.5v6.59h1.4l4.19-6.59h1.69l-4.59,7.21c.72,1.24,4,6.17,4.7,7.39Z" transform="translate(-372.26 -261.84)"/><path class="cls-2" d="M625.65,372.71h-1.73a.24.24,0,0,1-.21-.11L619.5,366h-1v6.48a.24.24,0,0,1-.24.24h-1.5a.24.24,0,0,1-.24-.24v-14.6a.25.25,0,0,1,.24-.25h1.5a.25.25,0,0,1,.24.25v6.34h1l4.12-6.47a.24.24,0,0,1,.2-.12h1.69a.24.24,0,0,1,.21.13.25.25,0,0,1,0,.25l-4.5,7.08c.42.72,1.43,2.27,2.4,3.78s1.84,2.84,2.2,3.45a.23.23,0,0,1,.06.16A.24.24,0,0,1,625.65,372.71Zm-1.6-.49h1.16c-.43-.69-1.19-1.87-2-3.1-1-1.61-2.11-3.27-2.49-3.92a.25.25,0,0,1,0-.25l4.34-6.84H624l-4.12,6.48a.24.24,0,0,1-.21.11h-1.4a.25.25,0,0,1-.25-.24v-6.35h-1v14.11h1v-6.48a.25.25,0,0,1,.25-.24h1.38a.26.26,0,0,1,.21.11Z" transform="translate(-372.26 -261.84)"/><path class="cls-2" d="M628,357.29a1,1,0,1,1-1,1A1,1,0,0,1,628,357.29Zm-.74,3.67h1.5v11.51h-1.5Z" transform="translate(-372.26 -261.84)"/><path class="cls-2" d="M628.73,372.71h-1.5a.24.24,0,0,1-.24-.24V361a.24.24,0,0,1,.24-.24h1.5a.24.24,0,0,1,.24.24v11.51A.24.24,0,0,1,628.73,372.71Zm-1.25-.49h1v-11h-1Zm.49-12.74a1.22,1.22,0,1,1,1.26-1.21A1.2,1.2,0,0,1,628,359.48Zm0-1.94a.73.73,0,1,0,.77.73A.7.7,0,0,0,628,357.54Z" transform="translate(-372.26 -261.84)"/><path class="cls-2" d="M630.57,361h1.73l.34-2.65h1.15V361h3.07v1.29h-3.07v7.23c0,1.55.7,2,1.69,2a5.72,5.72,0,0,0,1.17-.13l.21.11v1.08a5.67,5.67,0,0,1-1.55.22c-2,0-3-1-3-3.21v-7.27h-1.73Z" transform="translate(-372.26 -261.84)"/><path class="cls-2" d="M635.31,373c-2.19,0-3.26-1.13-3.26-3.46v-7h-1.48a.24.24,0,0,1-.24-.24V361a.24.24,0,0,1,.24-.24h1.51l.32-2.44a.25.25,0,0,1,.24-.21h1.15a.24.24,0,0,1,.25.24v2.41h2.82a.24.24,0,0,1,.24.24v1.29a.24.24,0,0,1-.24.24H634v7c0,1.52.69,1.73,1.44,1.73a5.27,5.27,0,0,0,1.11-.13.25.25,0,0,1,.17,0l.21.11a.25.25,0,0,1,.13.22v1.08a.24.24,0,0,1-.17.23A5.7,5.7,0,0,1,635.31,373Zm-4.5-11h1.49a.25.25,0,0,1,.24.25v7.27c0,2.05.86,3,2.77,3a5.55,5.55,0,0,0,1.3-.16v-.76a5.81,5.81,0,0,1-1.13.12c-1.3,0-1.93-.72-1.93-2.21v-7.23a.25.25,0,0,1,.24-.25h2.82v-.79h-2.82a.25.25,0,0,1-.24-.25v-2.41h-.69l-.32,2.45a.25.25,0,0,1-.24.21h-1.49Z" transform="translate(-372.26 -261.84)"/><path class="cls-2" d="M645.63,372.22a7,7,0,0,1-2.62.51c-3.09,0-4.77-1.52-4.77-5.68v-.33c0-4.43,1.73-6,4.91-6a7.46,7.46,0,0,1,2.25.33c0,.42-.16,1.09-.16,1.09l-.16.1a9.49,9.49,0,0,0-1.93-.24c-2,0-3.41.82-3.41,4.76v.31c0,3.83,1.68,4.4,3.36,4.4a7.84,7.84,0,0,0,2.19-.4l.18.11A10,10,0,0,1,645.63,372.22Z" transform="translate(-372.26 -261.84)"/><path class="cls-2" d="M643,373c-3.42,0-5-1.89-5-5.93v-.33c0-4.27,1.63-6.26,5.15-6.26a7.84,7.84,0,0,1,2.33.34.26.26,0,0,1,.17.26c0,.42-.16,1.07-.17,1.1a.27.27,0,0,1-.1.16l-.16.1a.21.21,0,0,1-.2,0,9.57,9.57,0,0,0-1.87-.23c-2,0-3.17.75-3.17,4.51v.31c0,3.66,1.58,4.16,3.12,4.16a7.38,7.38,0,0,0,2.11-.39.24.24,0,0,1,.2,0l.19.11a.29.29,0,0,1,.11.16c0,.11.12.65.17,1.09a.26.26,0,0,1-.15.25A7.23,7.23,0,0,1,643,373Zm.14-12c-3.27,0-4.66,1.73-4.66,5.78v.33c0,3.81,1.35,5.44,4.52,5.44a7.12,7.12,0,0,0,2.36-.42c0-.29-.09-.59-.12-.75a8,8,0,0,1-2.15.37c-1.68,0-3.61-.52-3.61-4.64v-.31c0-3.55,1.06-5,3.66-5A9.88,9.88,0,0,1,645,362c0-.16.08-.48.11-.76A7.6,7.6,0,0,0,643.15,360.94Z" transform="translate(-372.26 -261.84)"/><path class="cls-2" d="M647.54,372.47V357H649v5.22h.05a6,6,0,0,1,3.89-1.5c2,0,3.32,1.28,3.32,3.49v8.28h-1.5v-8c0-1.77-.88-2.46-2.23-2.46A5.72,5.72,0,0,0,649,363.4v9.07Z" transform="translate(-372.26 -261.84)"/><path class="cls-2" d="M656.3,372.71h-1.5a.25.25,0,0,1-.25-.24v-8c0-1.51-.63-2.21-2-2.21a5.46,5.46,0,0,0-3.28,1.29v9a.25.25,0,0,1-.25.24h-1.5a.24.24,0,0,1-.24-.24V357a.24.24,0,0,1,.24-.24H649a.25.25,0,0,1,.25.24v4.76a6.06,6.06,0,0,1,3.69-1.28,3.39,3.39,0,0,1,3.56,3.73v8.28A.24.24,0,0,1,656.3,372.71Zm-1.26-.49h1v-8c0-2.06-1.12-3.25-3.07-3.25a5.84,5.84,0,0,0-3.74,1.45.22.22,0,0,1-.15.06H649a.25.25,0,0,1-.24-.25v-5h-1v15h1V363.4a.22.22,0,0,1,.09-.19,6,6,0,0,1,3.68-1.47c1.62,0,2.47.93,2.47,2.7Z" transform="translate(-372.26 -261.84)"/><path class="cls-2" d="M660.12,367.27c0,3.16,1.45,4.18,3.64,4.18a7.53,7.53,0,0,0,2.83-.62l.23.11s.09.66.12,1a6.77,6.77,0,0,1-3.41.79c-3.11,0-4.91-1.77-4.91-5.68v-.78c0-3.51,1.89-5.57,4.56-5.57h.16c2.44,0,4,1.46,4,4.53v.36a15.05,15.05,0,0,1-.13,1.68Zm0-1.15H666v-1c0-2.5-1.32-3.14-2.63-3.14h-.16c-1.59,0-3,1.11-3,3.85Z" transform="translate(-372.26 -261.84)"/><path class="cls-2" d="M663.53,373c-3.37,0-5.15-2.06-5.15-5.93v-.78c0-3.53,1.88-5.81,4.8-5.81h.16c2.72,0,4.28,1.74,4.28,4.77v.36a15.59,15.59,0,0,1-.14,1.71.25.25,0,0,1-.24.21h-6.87c.06,2.55,1.11,3.7,3.39,3.7a6.77,6.77,0,0,0,2.55-.54l.21-.08a.37.37,0,0,1,.18,0l.23.11a.26.26,0,0,1,.14.22h0a.87.87,0,0,0,0,.11c0,.21.08.62.1.87a.26.26,0,0,1-.07.19A6.69,6.69,0,0,1,663.53,373Zm-.35-12c-2.62,0-4.31,2.1-4.31,5.33v.78c0,3.61,1.56,5.44,4.66,5.44a7,7,0,0,0,3.15-.68c0-.23-.06-.53-.08-.7h0l-.09,0a7.34,7.34,0,0,1-2.73.56c-2.61,0-3.89-1.44-3.89-4.42a.25.25,0,0,1,.25-.25H667a12.48,12.48,0,0,0,.11-1.43v-.36c0-2.76-1.35-4.29-3.79-4.29Zm2.77,5.42h-5.83a.25.25,0,0,1-.25-.24v-.29c0-3,1.7-4.09,3.29-4.09h.16c1.07,0,2.87.44,2.87,3.38v1A.24.24,0,0,1,666,366.36Zm-5.59-.48h5.34v-.76c0-1.92-.8-2.89-2.38-2.89h-.16c-1.75,0-2.8,1.34-2.8,3.6Z" transform="translate(-372.26 -261.84)"/><path class="cls-2" d="M669.79,372.47V361h.92l.44,1.38a6.25,6.25,0,0,1,4.08-1.64c2.09,0,3.31,1.3,3.31,3.49v8.28h-1.49v-8c0-1.77-.88-2.46-2.24-2.46a5.71,5.71,0,0,0-3.52,1.42v9.07Z" transform="translate(-372.26 -261.84)"/><path class="cls-2" d="M678.54,372.71h-1.49a.25.25,0,0,1-.25-.24v-8c0-1.51-.63-2.21-2-2.21a5.48,5.48,0,0,0-3.28,1.29v9a.24.24,0,0,1-.24.24h-1.5a.24.24,0,0,1-.24-.24V361a.24.24,0,0,1,.24-.24h.92a.26.26,0,0,1,.24.17l.32,1a6.31,6.31,0,0,1,4-1.46c2.23,0,3.56,1.39,3.56,3.73v8.28A.25.25,0,0,1,678.54,372.71Zm-1.25-.49h1v-8c0-2.06-1.12-3.25-3.07-3.25a6,6,0,0,0-3.92,1.58.27.27,0,0,1-.23.05.22.22,0,0,1-.16-.16l-.38-1.2H670v11h1V363.4a.22.22,0,0,1,.09-.19,5.94,5.94,0,0,1,3.67-1.47c1.62,0,2.48.93,2.48,2.7Z" transform="translate(-372.26 -261.84)"/><path class="cls-2" d="M547.41,376.81h3.15c2.58,0,3.84,1.18,3.84,3.37v.15a2.49,2.49,0,0,1-1.4,2.61V383c1.44.46,1.79,1.62,1.79,2.91v.15c0,1.67-.79,3.37-3.26,3.37h-4.12Zm1.26,1.05v4.69h2.68a1.69,1.69,0,0,0,1.79-1.91v-.42c0-1.54-.82-2.36-2.68-2.36Zm0,5.69v4.85h2.66a2,2,0,0,0,2.2-2.2v-.5a1.94,1.94,0,0,0-2.18-2.15Z" transform="translate(-372.26 -261.84)"/><path class="cls-2" d="M551.53,389.48h-4.15v-12.7h3.18a4.22,4.22,0,0,1,2.9.88,3.2,3.2,0,0,1,1,2.52v.15A2.53,2.53,0,0,1,553,383V383c1.22.39,1.79,1.33,1.79,2.93v.15a3.75,3.75,0,0,1-.72,2.33A3.09,3.09,0,0,1,551.53,389.48Zm-4.1-.05h4.1a3,3,0,0,0,3.24-3.35v-.15c0-1.59-.57-2.51-1.77-2.89h0v-.11h0a2.5,2.5,0,0,0,1.39-2.59v-.15c0-2.22-1.29-3.35-3.82-3.35h-3.13Zm3.9-1h-2.68v-4.89h2.7a2,2,0,0,1,2.2,2.17v.5A2,2,0,0,1,551.33,388.42Zm-2.64,0h2.64a2,2,0,0,0,2.17-2.18v-.5a1.91,1.91,0,0,0-2.15-2.12h-2.66Zm2.66-5.8h-2.7v-4.74h1.81c1.82,0,2.71.78,2.71,2.38v.42A1.73,1.73,0,0,1,551.35,382.58Zm-2.66-.05h2.66a1.67,1.67,0,0,0,1.77-1.89v-.42c0-1.57-.87-2.34-2.66-2.34h-1.77Z" transform="translate(-372.26 -261.84)"/><path class="cls-2" d="M562.22,383.09c0-1.8-.57-2.72-2.76-2.72a9.08,9.08,0,0,0-2.53.38l-.16-.13c0-.1.14-.82.18-1a9,9,0,0,1,2.6-.38c2.92,0,3.93,1.3,3.93,3.83v4.06c0,1,.33,1.35,1,1.46l.31.06.08.13c0,.14-.2.75-.2.75a1.46,1.46,0,0,1-.62.13,1.74,1.74,0,0,1-1.75-1.82h0a3.56,3.56,0,0,1-3.15,1.82,2.9,2.9,0,0,1-3-2.95v-.09c0-1.77,1-2.84,3.1-3.09l3.06-.36Zm0,3.55v-2.4l-2.72.33c-1.64.19-2.18.92-2.18,2v.1a1.82,1.82,0,0,0,1.94,1.93A3.81,3.81,0,0,0,562.22,386.64Z" transform="translate(-372.26 -261.84)"/><path class="cls-2" d="M564,389.71a1.76,1.76,0,0,1-1.77-1.82h0a3.58,3.58,0,0,1-3.16,1.82,3,3,0,0,1-3-3v-.09c0-1.82,1.05-2.87,3.13-3.11l3-.36v-.08c0-1.66-.46-2.7-2.73-2.7a8.7,8.7,0,0,0-2.52.39h0l-.17-.15h0c0-.1.14-.84.17-1v0h0a9.31,9.31,0,0,1,2.61-.38c2.77,0,4,1.15,4,3.85v4.06c0,1.06.35,1.33,1,1.44l.33.06.08.15h0c0,.13-.19.74-.19.74v0h0A1.41,1.41,0,0,1,564,389.71Zm-1.82-1.87h.1v0a1.71,1.71,0,0,0,1.72,1.8,1.29,1.29,0,0,0,.6-.13c0-.08.15-.59.19-.72l-.06-.12-.3-.06c-.62-.11-1-.39-1-1.48v-4.06c0-2.67-1.16-3.81-3.9-3.81a9,9,0,0,0-2.58.38c0,.18-.16.83-.17.95l.13.12a9.36,9.36,0,0,1,2.53-.38c2.31,0,2.78,1,2.78,2.74v.12h0l-3.05.37c-2.08.24-3.09,1.24-3.09,3.06v.09a2.89,2.89,0,0,0,3,2.93,3.51,3.51,0,0,0,3.12-1.81Zm-2.94.76a1.86,1.86,0,0,1-2-2v-.1c0-1.19.7-1.82,2.2-2l2.75-.32v2.42h0A3.73,3.73,0,0,1,559.26,388.6Zm2.93-4.33-2.69.32c-1.47.17-2.16.79-2.16,2v.1a1.81,1.81,0,0,0,1.92,1.91,3.66,3.66,0,0,0,2.93-1.92Z" transform="translate(-372.26 -261.84)"/><path class="cls-2" d="M566.39,389.45v-10h.78l.37,1.19a5.22,5.22,0,0,1,3.44-1.42c1.77,0,2.8,1.13,2.8,3v7.16h-1.27V382.5c0-1.54-.74-2.13-1.88-2.13a4.75,4.75,0,0,0-3,1.23v7.85Z" transform="translate(-372.26 -261.84)"/><path class="cls-2" d="M573.8,389.48h-1.31v-7c0-1.4-.63-2.11-1.86-2.11a4.78,4.78,0,0,0-3,1.22v7.87h-1.31v-10h.82l.36,1.16a5.2,5.2,0,0,1,3.43-1.4c1.77,0,2.82,1.14,2.82,3.05Zm-1.26-.05h1.21v-7.14c0-1.88-1-3-2.77-3a5.23,5.23,0,0,0-3.43,1.41l0,0-.38-1.21h-.73v9.92h1.21v-7.84h0a4.88,4.88,0,0,1,3-1.23c1.27,0,1.91.72,1.91,2.15Z" transform="translate(-372.26 -261.84)"/><path class="cls-2" d="M579.32,379.26a3.44,3.44,0,0,1,2.58,1,2.49,2.49,0,0,1,1.86-.8h.3v1l-.16.13-.25,0a1.83,1.83,0,0,0-1.24.42,3.44,3.44,0,0,1,.38,1.61c0,2.34-1.55,3.34-3.47,3.34h-.24a4.24,4.24,0,0,1-1.4-.23,2.36,2.36,0,0,0-.58,1.32c0,.59.41,1,1.17,1h2.23c2.1,0,3.11,1.15,3.11,2.5v.15c0,1.4-1.05,2.82-3.93,2.82h-.58c-2.47,0-3.65-1.12-3.65-2.49V391a2.48,2.48,0,0,1,1.34-2.09v0a1.69,1.69,0,0,1-.86-1.49,3.42,3.42,0,0,1,.9-2,3.06,3.06,0,0,1-1.23-2.7,3.26,3.26,0,0,1,3.48-3.37Zm-1.09,9.91a3.26,3.26,0,0,1-.39,0,2,2,0,0,0-1.13,1.68c0,1,.84,1.65,2.49,1.65h.39c2,0,2.76-.67,2.76-1.74v-.08c0-.82-.53-1.49-2-1.49Zm-1.36-6.6v.14a2.05,2.05,0,0,0,2.33,2.22,2,2,0,0,0,2.33-2.22v-.14a2.33,2.33,0,0,0-4.66,0Z" transform="translate(-372.26 -261.84)"/><path class="cls-2" d="M579.68,393.54h-.58c-2.71,0-3.68-1.3-3.68-2.51V391a2.49,2.49,0,0,1,1.34-2.1v0a1.72,1.72,0,0,1-.85-1.5,3.33,3.33,0,0,1,.88-2,3.12,3.12,0,0,1-1.21-2.71,3.3,3.3,0,0,1,3.5-3.39h.24a3.48,3.48,0,0,1,2.58,1,2.46,2.46,0,0,1,1.86-.79h.32v1l-.17.14h0l-.21,0a1.89,1.89,0,0,0-1.22.41,3.38,3.38,0,0,1,.39,1.6,3.19,3.19,0,0,1-1,2.56,3.72,3.72,0,0,1-2.47.8h-.24a4.18,4.18,0,0,1-1.39-.23,2.32,2.32,0,0,0-.57,1.3c0,.61.43,1,1.15,1h2.23c2.31,0,3.13,1.35,3.13,2.52v.15C583.63,392.07,582.6,393.54,579.68,393.54Zm-.6-14.26a3.26,3.26,0,0,0-3.45,3.35,3.07,3.07,0,0,0,1.21,2.68l0,0v0a3.29,3.29,0,0,0-.89,2,1.67,1.67,0,0,0,.84,1.47h0v.06h0a2.44,2.44,0,0,0-1.33,2.07V391c0,1.52,1.39,2.46,3.63,2.46h.58a4.53,4.53,0,0,0,3-.88,2.48,2.48,0,0,0,.87-1.91v-.15c0-1.5-1.21-2.47-3.08-2.47h-2.23c-.75,0-1.19-.38-1.19-1a2.33,2.33,0,0,1,.58-1.34h0a3.9,3.9,0,0,0,1.39.23h.24a3.1,3.1,0,0,0,3.45-3.31,3.38,3.38,0,0,0-.39-1.6v0h0a1.94,1.94,0,0,1,1.26-.42h.24l.14-.11v-1h-.27a2.43,2.43,0,0,0-1.84.8l0,0,0,0a3.42,3.42,0,0,0-2.56-1Zm.51,13.22h-.39c-1.6,0-2.51-.6-2.51-1.67a2,2,0,0,1,1.14-1.7h0a3.48,3.48,0,0,0,.39,0h2.13c1.75,0,2,.95,2,1.52v.08C582.37,391.93,581.46,392.5,579.59,392.5Zm-1.75-3.33a2,2,0,0,0-1.1,1.66c0,1.05.87,1.63,2.46,1.63h.39c1.84,0,2.73-.56,2.73-1.72v-.08c0-1-.69-1.47-2-1.47h-2.13A2.54,2.54,0,0,1,577.84,389.17ZM579.2,385a2.07,2.07,0,0,1-2.36-2.24v-.14a2.36,2.36,0,0,1,4.71,0v.14A2.05,2.05,0,0,1,579.2,385Zm0-4.63a2.09,2.09,0,0,0-2.31,2.25v.14a2.31,2.31,0,0,0,4.62,0v-.14A2.12,2.12,0,0,0,579.2,380.32Z" transform="translate(-372.26 -261.84)"/><path class="cls-2" d="M586.82,376v11.11c0,1.13.36,1.42,1.07,1.42a2.84,2.84,0,0,0,.6-.06l.15.16v.86a3.5,3.5,0,0,1-1,.15c-1.45,0-2-.88-2-2.47V376Z" transform="translate(-372.26 -261.84)"/><path class="cls-2" d="M587.59,389.71c-1.41,0-2.06-.8-2.06-2.5V376h1.31v11.13c0,1.17.4,1.4,1,1.4a2.79,2.79,0,0,0,.59-.06h0l.17.17v.89h0A3.4,3.4,0,0,1,587.59,389.71Zm-2-13.65v11.15c0,1.67.64,2.45,2,2.45a3.32,3.32,0,0,0,1-.15v-.83l-.14-.14a3.12,3.12,0,0,1-.59.06c-.68,0-1.1-.24-1.1-1.45V376.06Z" transform="translate(-372.26 -261.84)"/><path class="cls-2" d="M595.79,383.09c0-1.8-.56-2.72-2.76-2.72a9.06,9.06,0,0,0-2.52.38l-.16-.13c0-.1.14-.82.18-1a9,9,0,0,1,2.6-.38c2.92,0,3.93,1.3,3.93,3.83v4.06c0,1,.33,1.35,1,1.46l.31.06.08.13-.2.75a1.46,1.46,0,0,1-.62.13,1.74,1.74,0,0,1-1.75-1.82h-.06a3.54,3.54,0,0,1-3.14,1.82,2.91,2.91,0,0,1-3-2.95v-.09c0-1.77,1-2.84,3.11-3.09l3-.36Zm0,3.55v-2.4l-2.72.33c-1.63.19-2.17.92-2.17,2v.1a1.82,1.82,0,0,0,1.94,1.93A3.78,3.78,0,0,0,595.79,386.64Z" transform="translate(-372.26 -261.84)"/><path class="cls-2" d="M597.6,389.71a1.76,1.76,0,0,1-1.77-1.82h0a3.58,3.58,0,0,1-3.16,1.82,3,3,0,0,1-3-3v-.09c0-1.82,1-2.87,3.13-3.11l3-.36v-.08c0-1.66-.46-2.7-2.74-2.7a8.79,8.79,0,0,0-2.52.39h0l-.17-.15h0c0-.1.14-.84.17-1v0h0a9.31,9.31,0,0,1,2.61-.38c2.77,0,4,1.15,4,3.85v4.06c0,1.06.35,1.33.95,1.44l.32.06.09.15h0c0,.13-.19.74-.19.74v0h0A1.34,1.34,0,0,1,597.6,389.71Zm-1.82-1.87h.09v0a1.71,1.71,0,0,0,1.72,1.8,1.29,1.29,0,0,0,.6-.13c0-.08.15-.59.19-.72l-.07-.12-.3-.06c-.61-.11-1-.39-1-1.48v-4.06c0-2.67-1.16-3.81-3.9-3.81a9,9,0,0,0-2.58.38c0,.18-.16.83-.17.95l.13.12a9.34,9.34,0,0,1,2.52-.38c2.32,0,2.79,1,2.79,2.74v.12h0l-3,.37c-2.08.24-3.09,1.24-3.09,3.06v.09a2.89,2.89,0,0,0,3,2.93,3.52,3.52,0,0,0,3.12-1.81Zm-2.94.76a1.86,1.86,0,0,1-2-2v-.1c0-1.19.7-1.82,2.2-2l2.75-.32v2.42h0A3.7,3.7,0,0,1,592.84,388.6Zm2.93-4.33-2.69.32c-1.47.17-2.16.79-2.16,2v.1a1.81,1.81,0,0,0,1.92,1.91,3.66,3.66,0,0,0,2.93-1.92Z" transform="translate(-372.26 -261.84)"/><path class="cls-2" d="M607.1,376v11.11c0,1,.3,1.35,1,1.46l.31.06.07.13-.19.75a1.46,1.46,0,0,1-.62.13,1.71,1.71,0,0,1-1.73-1.74h-.1a3.56,3.56,0,0,1-3,1.74c-1.83,0-3.27-1.28-3.27-4.67v-.94c0-3.45,1.56-4.81,3.74-4.81a4.23,4.23,0,0,1,2.58.94V376Zm-6.31,8.89c0,2.34.66,3.64,2.14,3.64a3.87,3.87,0,0,0,2.91-1.93v-5.37a4,4,0,0,0-2.41-.9c-1.5,0-2.64.86-2.64,3.85Z" transform="translate(-372.26 -261.84)"/><path class="cls-2" d="M607.65,389.71A1.74,1.74,0,0,1,605.9,388h-.07a3.61,3.61,0,0,1-3,1.75c-1.23,0-3.29-.61-3.29-4.7v-.94a5.63,5.63,0,0,1,1.06-3.72,3.36,3.36,0,0,1,2.7-1.11,4.29,4.29,0,0,1,2.56.91V376h1.31v11.13c0,.94.25,1.32,1,1.44l.32.06.09.15h0l-.2.76h0A1.34,1.34,0,0,1,607.65,389.71Zm-1.84-1.79h.13v0a1.68,1.68,0,0,0,1.71,1.72,1.33,1.33,0,0,0,.6-.13l.19-.72-.07-.12-.3-.06c-.72-.12-1-.52-1-1.48V376.06h-1.22v4.19l0,0a4.12,4.12,0,0,0-2.57-.94c-1.69,0-3.71.83-3.71,4.79V385c0,3,1.15,4.65,3.24,4.65a3.58,3.58,0,0,0,3-1.73Zm-2.88.68c-1.44,0-2.17-1.24-2.17-3.67v-.71c0-2.61.88-3.87,2.67-3.87a3.91,3.91,0,0,1,2.4.88l0,0h0v5.38h0C604.92,388,604,388.6,602.93,388.6Zm.5-8.21c-1.76,0-2.62,1.26-2.62,3.83v.71c0,2.4.71,3.62,2.12,3.62,1,0,2-.63,2.89-1.92v-5.35h0A3.85,3.85,0,0,0,603.43,380.39Z" transform="translate(-372.26 -261.84)"/><path class="cls-2" d="M610.83,385c0,2.74,1.23,3.62,3.08,3.62a6.54,6.54,0,0,0,2.39-.53l.19.09s.08.58.09.87a5.55,5.55,0,0,1-2.87.68c-2.62,0-4.14-1.53-4.14-4.92v-.67c0-3,1.6-4.83,3.85-4.83h.14c2.05,0,3.4,1.26,3.4,3.93v.3a12.2,12.2,0,0,1-.12,1.46Zm0-1h4.92v-.86c0-2.16-1.11-2.72-2.21-2.72h-.14c-1.34,0-2.57,1-2.57,3.33Z" transform="translate(-372.26 -261.84)"/><path class="cls-2" d="M613.71,389.71a3.89,3.89,0,0,1-3.07-1.2,5.61,5.61,0,0,1-1.09-3.75v-.67c0-2.95,1.52-4.85,3.87-4.85h.14c2.2,0,3.42,1.4,3.42,3.95v.3a12.44,12.44,0,0,1-.12,1.46v0h-6c0,2.44,1,3.58,3,3.58a5.72,5.72,0,0,0,2.22-.48l.16-.06h0l.21.11h0l0,.11c0,.19.06.54.08.75h0A5.43,5.43,0,0,1,613.71,389.71Zm-.29-10.43c-2.33,0-3.82,1.89-3.82,4.81v.67c0,3.25,1.38,4.9,4.11,4.9a5.55,5.55,0,0,0,2.85-.68c0-.21-.06-.55-.08-.73a.58.58,0,0,1,0-.1l-.18-.09-.14.06a6,6,0,0,1-2.24.48c-2.12,0-3.1-1.16-3.1-3.65v0h6a12.56,12.56,0,0,0,.11-1.44v-.3c0-2.52-1.2-3.91-3.37-3.91Zm2.35,4.7h-5v-.28a3.8,3.8,0,0,1,.79-2.57,2.32,2.32,0,0,1,1.8-.78h.14c1,0,2.23.47,2.23,2.74Zm-4.91-.05h4.87v-.84c0-2.23-1.19-2.7-2.19-2.7h-.14c-1.59,0-2.54,1.24-2.54,3.31Z" transform="translate(-372.26 -261.84)"/><path class="cls-2" d="M618.76,388.46l.2-.14a12,12,0,0,0,2.37.25c1.69,0,2.58-.63,2.58-1.9,0-.86-.46-1.39-1.9-1.72l-1.13-.25c-1.57-.34-2.47-.94-2.47-2.57s1-2.87,3.73-2.87a12.65,12.65,0,0,1,2.18.25c0,.38-.08.9-.1,1l-.19.09a12.32,12.32,0,0,0-1.89-.21c-1.9,0-2.47.73-2.47,1.76,0,.83.61,1.29,1.64,1.52l1.14.25c2,.42,2.72,1.36,2.72,2.77,0,1.94-1.26,3-3.78,3a11.81,11.81,0,0,1-2.53-.25C618.8,389.07,618.76,388.46,618.76,388.46Z" transform="translate(-372.26 -261.84)"/><path class="cls-2" d="M621.39,389.71a12.21,12.21,0,0,1-2.54-.25h0v0c-.05-.36-.09-1-.09-1h0l.21-.15h0a12.39,12.39,0,0,0,2.37.25c1.7,0,2.56-.63,2.56-1.88,0-.9-.55-1.39-1.89-1.7l-1.12-.25c-1.5-.32-2.49-.89-2.49-2.59a2.64,2.64,0,0,1,.83-2,4.26,4.26,0,0,1,2.92-.87,12.08,12.08,0,0,1,2.19.25h0v0c0,.14,0,.31,0,.46s0,.47,0,.52h0l-.21.11h0a12.49,12.49,0,0,0-1.88-.21c-1.66,0-2.44.56-2.44,1.74,0,.76.53,1.25,1.61,1.49l1.15.25c1.87.4,2.74,1.3,2.74,2.8C625.2,388.66,623.88,389.71,621.39,389.71Zm-2.51-.29a12.33,12.33,0,0,0,2.51.24c2.46,0,3.76-1,3.76-3,0-1.48-.86-2.35-2.7-2.75l-1.15-.25c-1.11-.25-1.65-.75-1.65-1.54,0-1.22.79-1.78,2.49-1.78a12.32,12.32,0,0,1,1.89.21l.17-.09c0-.06,0-.28,0-.51s0-.29,0-.43a12.55,12.55,0,0,0-2.15-.25,4.2,4.2,0,0,0-2.89.87,2.59,2.59,0,0,0-.81,2c0,1.67,1,2.23,2.45,2.55l1.12.25c1.37.31,1.93.81,1.93,1.74,0,1.28-.88,1.93-2.61,1.93a12.76,12.76,0,0,1-2.37-.25l-.17.12C618.79,388.56,618.83,389.09,618.88,389.42Z" transform="translate(-372.26 -261.84)"/><path class="cls-2" d="M627.08,389.45V376h1.26v4.52h0a5,5,0,0,1,3.29-1.3c1.73,0,2.79,1.11,2.79,3v7.16H633.2V382.5c0-1.54-.74-2.13-1.88-2.13a4.79,4.79,0,0,0-3,1.23v7.85Z" transform="translate(-372.26 -261.84)"/><path class="cls-2" d="M634.49,389.48h-1.31v-7c0-1.4-.63-2.11-1.86-2.11a4.76,4.76,0,0,0-3,1.22v7.87h-1.31V376h1.31v4.52h0a5.07,5.07,0,0,1,3.3-1.3c1.76,0,2.82,1.14,2.82,3.05Zm-1.26-.05h1.21v-7.14c0-1.88-1-3-2.77-3a5,5,0,0,0-3.27,1.3h-.08v-4.53H627.1v13.37h1.22v-7.84h0a4.86,4.86,0,0,1,3-1.23c1.26,0,1.91.72,1.91,2.15Z" transform="translate(-372.26 -261.84)"/><path class="cls-2" d="M550.58,364a3.45,3.45,0,0,0-2,.67v-3.09h-1.22V372h.84l0-.12c0-.19.1-.4.17-.6a3,3,0,0,0,2.13.89c.78,0,2.6-.36,2.6-3.71v-.66C553.15,365.26,552.29,364,550.58,364Zm1.36,3.88v.51c0,1.75-.54,2.6-1.64,2.6a2.69,2.69,0,0,1-1.7-.82v-4.4a3.3,3.3,0,0,1,1.77-.63C551.18,365.14,551.94,365.47,551.94,367.88Z" transform="translate(-372.26 -261.84)"/><path class="cls-2" d="M558,364.17l-1.56,5c-.08.25-.16.6-.22.88-.07-.29-.17-.66-.24-.89l-1.76-5H553l2.67,7.64-.28.85c-.35,1.1-.53,1.21-.89,1.21a1.71,1.71,0,0,1-.38-.05l-.08,0-.23.21-.12.8.1.05a2,2,0,0,0,.82.16c.93,0,1.48-.58,1.94-2.08l2.73-8.76Z" transform="translate(-372.26 -261.84)"/></svg>