<svg xmlns="http://www.w3.org/2000/svg" viewBox="0 0 107.27 42.48"><defs><style>.cls-1,.cls-2{fill:#fff;}.cls-1{fill-rule:evenodd;}</style></defs><title>onno logo 3</title><g id="Layer_2" data-name="Layer 2"><g id="Layer_1-2" data-name="Layer 1"><path class="cls-1" d="M12.1,13.3a.68.68,0,1,0,.67.68A.67.67,0,0,0,12.1,13.3Z"/><path class="cls-1" d="M19.16,13.3a.68.68,0,1,0,.68.68A.67.67,0,0,0,19.16,13.3Z"/><path class="cls-2" d="M29.87,11.05a.35.35,0,0,0-.37.33v2H29v-2a.37.37,0,0,0-.73,0v2h-.47v-2a.37.37,0,0,0-.73,0v2.25h0a1.51,1.51,0,0,0,1.13,1.63v.09a12.61,12.61,0,0,1-24.43,2,.41.41,0,0,0-.54-.27.42.42,0,0,0-.27.53,13.46,13.46,0,0,0,26.08-2.18s0-.09,0-.14v-.07h0a1.52,1.52,0,0,0,1.15-1.64h0V11.38A.36.36,0,0,0,29.87,11.05Z"/><path class="cls-2" d="M3.19,12.6A12.6,12.6,0,0,1,28,10.23a.42.42,0,0,0,.82-.21A13.45,13.45,0,0,0,2.34,12.59c-2.4.38-1.14,4.3.4,4.3S5.51,13,3.19,12.6Zm-.45.75a4.79,4.79,0,0,0-.87.07,1.09,1.09,0,0,1,.87-.48,1.08,1.08,0,0,1,.86.48A4.76,4.76,0,0,0,2.74,13.35Z"/><path class="cls-1" d="M27,22q-.55-4-1.16-8.07a13.31,13.31,0,0,0-2-6c-2.26-3.12-5.27-5-9.18-4.46a9.49,9.49,0,0,0-8.24,7A56.91,56.91,0,0,0,5,17.24c-.29,1.58-.55,3.17-.83,4.76h0a47.08,47.08,0,0,1-1.4,5.94,28.31,28.31,0,0,1-1.4,3.4A22.87,22.87,0,0,0,.17,34.11c-.4,1.11,0,1.54.21,1.67a3.83,3.83,0,0,0,1.77.66,5.93,5.93,0,0,0,2.29-.13,20.88,20.88,0,0,0,4.93-1.87c1.56-.86,2.91-1.09,3.69,1,1,2.61,2.67,2.07,4,.54A25,25,0,0,0,20,30.94c.91-1.8,1.7-3.18,3.82-1.19,1.65,1.56,2.75.3,3.08-1.27A20.33,20.33,0,0,0,27,22ZM14.09,12.55a.31.31,0,0,1-.44-.15c0-.05-.06-.11-.1-.17a1.25,1.25,0,0,0-2.09-.13c-.08.1-.13.21-.2.31a.33.33,0,0,1-.43.12.34.34,0,0,1-.14-.44,1.94,1.94,0,0,1,1.86-1.16h.1a1.89,1.89,0,0,1,1.59,1.16A.33.33,0,0,1,14.09,12.55ZM17,14.5s0,0,0,.06a1.26,1.26,0,0,1-2.52-.12.33.33,0,0,1,.29-.37.31.31,0,0,1,.36.3l0,.16a.6.6,0,0,0,1.19-.11.34.34,0,0,1,.38-.35C17,14.09,17.07,14.26,17,14.5Zm3.65-1.94a.32.32,0,0,1-.39-.11l-.11-.19a1.26,1.26,0,0,0-2.13-.14c-.07.1-.12.2-.18.3a.33.33,0,0,1-.49.06.34.34,0,0,1-.05-.45,1.89,1.89,0,0,1,1.58-1.1,2,2,0,0,1,1.49.52,1.46,1.46,0,0,1,.47.74A.31.31,0,0,1,20.69,12.56Z"/><path class="cls-2" d="M41.91,24.87a7.7,7.7,0,0,1-2.84-3.31,11.46,11.46,0,0,1-1-5,11.46,11.46,0,0,1,1-5,7.7,7.7,0,0,1,2.84-3.31,8.37,8.37,0,0,1,8.5,0,7.57,7.57,0,0,1,2.84,3.31,11.6,11.6,0,0,1,1,5,11.6,11.6,0,0,1-1,5,7.57,7.57,0,0,1-2.84,3.31,8.37,8.37,0,0,1-8.5,0Zm8.53-2.78A8.68,8.68,0,0,0,52,16.57a8.77,8.77,0,0,0-1.54-5.5,5.1,5.1,0,0,0-4.26-2,5.08,5.08,0,0,0-4.28,2,8.84,8.84,0,0,0-1.52,5.5,8.87,8.87,0,0,0,1.49,5.52A5.06,5.06,0,0,0,46.13,24,5.17,5.17,0,0,0,50.44,22.09Z"/><path class="cls-2" d="M46.17,26.26a7.74,7.74,0,0,1-7.31-4.6,11.77,11.77,0,0,1-1-5.09,11.77,11.77,0,0,1,1-5.09,7.71,7.71,0,0,1,7.31-4.59,8.08,8.08,0,0,1,4.36,1.19,7.88,7.88,0,0,1,2.93,3.4,12.07,12.07,0,0,1,1,5.09,12.07,12.07,0,0,1-1,5.09,7.88,7.88,0,0,1-2.93,3.4A8.08,8.08,0,0,1,46.17,26.26Zm0-18.93a7.31,7.31,0,0,0-6.9,4.34,11.37,11.37,0,0,0-1,4.9,11.37,11.37,0,0,0,1,4.9,7.77,7.77,0,0,0,11,3.21,7.45,7.45,0,0,0,2.77-3.21,11.67,11.67,0,0,0,1-4.9,11.67,11.67,0,0,0-1-4.9,7.45,7.45,0,0,0-2.77-3.21A7.57,7.57,0,0,0,46.17,7.33Zm0,16.9a5.34,5.34,0,0,1-4.45-2,9.12,9.12,0,0,1-1.54-5.66,9.09,9.09,0,0,1,1.57-5.64,5.84,5.84,0,0,1,8.9,0,9,9,0,0,1,1.58,5.64,8.93,8.93,0,0,1-1.57,5.66A5.44,5.44,0,0,1,46.13,24.23Zm0-14.91a4.83,4.83,0,0,0-4.1,1.88,8.66,8.66,0,0,0-1.47,5.37A8.69,8.69,0,0,0,42,22a4.81,4.81,0,0,0,4.09,1.82A5,5,0,0,0,50.27,22a8.58,8.58,0,0,0,1.47-5.38,8.59,8.59,0,0,0-1.49-5.37A4.84,4.84,0,0,0,46.17,9.32Z"/><path class="cls-2" d="M71.3,14.17V24.79a1.17,1.17,0,0,1-.29.85,1,1,0,0,1-.79.32,1.11,1.11,0,0,1-.82-.32,1.14,1.14,0,0,1-.31-.85V14.32a6.06,6.06,0,0,0-1-4,4.15,4.15,0,0,0-3.33-1.24,5.5,5.5,0,0,0-4.19,1.66A6.14,6.14,0,0,0,59,15.22v9.57a1.22,1.22,0,0,1-.29.85,1,1,0,0,1-.8.32,1.11,1.11,0,0,1-.82-.32,1.18,1.18,0,0,1-.3-.85V8.35A1.18,1.18,0,0,1,57,7.5a1.11,1.11,0,0,1,.82-.32,1,1,0,0,1,.76.3,1.16,1.16,0,0,1,.29.83v2.36A6,6,0,0,1,61.32,8,7,7,0,0,1,65,7.11Q71.31,7.11,71.3,14.17Z"/><path class="cls-2" d="M70.22,26.18a1.3,1.3,0,0,1-1-.39,1.36,1.36,0,0,1-.37-1V14.32a5.86,5.86,0,0,0-1-3.8,4,4,0,0,0-3.16-1.16,5.31,5.31,0,0,0-4,1.58,6,6,0,0,0-1.52,4.28v9.57a1.44,1.44,0,0,1-.34,1,1.27,1.27,0,0,1-1,.39,1.3,1.3,0,0,1-1-.39,1.36,1.36,0,0,1-.37-1V8.35a1.36,1.36,0,0,1,.37-1,1.3,1.3,0,0,1,1-.39,1.23,1.23,0,0,1,.93.37,1.37,1.37,0,0,1,.35,1v1.5a6.06,6.06,0,0,1,2.06-2,7.4,7.4,0,0,1,3.76-1c4.36,0,6.57,2.44,6.57,7.28V24.79a1.45,1.45,0,0,1-.35,1A1.23,1.23,0,0,1,70.22,26.18ZM64.71,8.91a4.38,4.38,0,0,1,3.51,1.32,6.31,6.31,0,0,1,1.1,4.09V24.79a.94.94,0,0,0,.25.7.83.83,0,0,0,.65.24.77.77,0,0,0,.62-.24,1,1,0,0,0,.24-.7V14.17c0-4.6-2-6.84-6.12-6.84a6.87,6.87,0,0,0-3.52.89,5.7,5.7,0,0,0-2.32,2.55l-.44.89V8.31a.94.94,0,0,0-.22-.68.81.81,0,0,0-.6-.23.84.84,0,0,0-.65.25.94.94,0,0,0-.25.7V24.79a1,1,0,0,0,.25.7.83.83,0,0,0,.65.24.79.79,0,0,0,.63-.24,1,1,0,0,0,.23-.7V15.22a6.38,6.38,0,0,1,1.64-4.58A5.73,5.73,0,0,1,64.71,8.91Z"/><path class="cls-2" d="M88.36,14.17V24.79a1.22,1.22,0,0,1-.29.85,1,1,0,0,1-.8.32,1.07,1.07,0,0,1-.81-.32,1.14,1.14,0,0,1-.31-.85V14.32a6.06,6.06,0,0,0-1.05-4,4.17,4.17,0,0,0-3.34-1.24,5.48,5.48,0,0,0-4.18,1.66A6.14,6.14,0,0,0,76,15.22v9.57a1.22,1.22,0,0,1-.29.85,1,1,0,0,1-.8.32,1.08,1.08,0,0,1-.81-.32,1.14,1.14,0,0,1-.31-.85V8.35a1.14,1.14,0,0,1,.31-.85,1.08,1.08,0,0,1,.81-.32,1,1,0,0,1,.77.3,1.16,1.16,0,0,1,.28.83v2.36A6,6,0,0,1,78.37,8,7.07,7.07,0,0,1,82,7.11Q88.35,7.11,88.36,14.17Z"/><path class="cls-2" d="M87.27,26.18a1.3,1.3,0,0,1-1-.39,1.36,1.36,0,0,1-.37-1V14.32a5.88,5.88,0,0,0-1-3.8,3.93,3.93,0,0,0-3.16-1.16,5.32,5.32,0,0,0-4,1.58,6,6,0,0,0-1.51,4.28v9.57a1.45,1.45,0,0,1-.35,1,1.25,1.25,0,0,1-1,.39,1.3,1.3,0,0,1-1-.39,1.4,1.4,0,0,1-.37-1V8.35a1.4,1.4,0,0,1,.37-1,1.3,1.3,0,0,1,1-.39,1.23,1.23,0,0,1,.93.37,1.37,1.37,0,0,1,.35,1v1.5a6.09,6.09,0,0,1,2.07-2,7.35,7.35,0,0,1,3.76-1c4.35,0,6.56,2.44,6.56,7.28V24.79a1.44,1.44,0,0,1-.34,1A1.27,1.27,0,0,1,87.27,26.18Z"/><path class="cls-2" d="M94.7,24.87a7.7,7.7,0,0,1-2.84-3.31,11.46,11.46,0,0,1-1-5,11.46,11.46,0,0,1,1-5A7.7,7.7,0,0,1,94.7,8.27a8.37,8.37,0,0,1,8.5,0,7.65,7.65,0,0,1,2.85,3.31,11.76,11.76,0,0,1,1,5,11.76,11.76,0,0,1-1,5,7.65,7.65,0,0,1-2.85,3.31,8.37,8.37,0,0,1-8.5,0Zm8.54-2.78a8.74,8.74,0,0,0,1.52-5.52,8.71,8.71,0,0,0-1.54-5.5,5.6,5.6,0,0,0-8.53,0,8.77,8.77,0,0,0-1.53,5.5,8.87,8.87,0,0,0,1.49,5.52A5.06,5.06,0,0,0,98.92,24,5.19,5.19,0,0,0,103.24,22.09Z"/><path class="cls-2" d="M99,26.26a7.74,7.74,0,0,1-7.31-4.6,11.92,11.92,0,0,1-1-5.09,11.92,11.92,0,0,1,1-5.09,8,8,0,0,1,2.93-3.4,8.62,8.62,0,0,1,8.74,0,7.81,7.81,0,0,1,2.93,3.4,11.92,11.92,0,0,1,1,5.09,11.92,11.92,0,0,1-1,5.09,7.81,7.81,0,0,1-2.93,3.4A8.08,8.08,0,0,1,99,26.26ZM99,7.33a7.28,7.28,0,0,0-6.89,4.34,11.37,11.37,0,0,0-1,4.9,11.37,11.37,0,0,0,1,4.9A7.28,7.28,0,0,0,99,25.81a7.61,7.61,0,0,0,4.12-1.13,7.37,7.37,0,0,0,2.76-3.21,11.52,11.52,0,0,0,1-4.9,11.52,11.52,0,0,0-1-4.9,7.37,7.37,0,0,0-2.76-3.21A7.61,7.61,0,0,0,99,7.33Zm0,16.9a5.34,5.34,0,0,1-4.45-2,9.12,9.12,0,0,1-1.53-5.66,9.09,9.09,0,0,1,1.56-5.64,5.84,5.84,0,0,1,8.9,0A9,9,0,0,1,105,16.57a9,9,0,0,1-1.57,5.66A5.47,5.47,0,0,1,98.92,24.23ZM99,9.32a4.88,4.88,0,0,0-4.09,1.88,8.66,8.66,0,0,0-1.48,5.37A8.74,8.74,0,0,0,94.83,22a4.81,4.81,0,0,0,4.09,1.82A5,5,0,0,0,103.06,22a8.51,8.51,0,0,0,1.47-5.38A8.59,8.59,0,0,0,103,11.2,4.84,4.84,0,0,0,99,9.32Z"/><path class="cls-2" d="M64,35v-1.9h.49v2.57h-.29l-.08-.31a1.63,1.63,0,0,1-1.05.39c-.86,0-1.59-.52-1.59-2.26v-.25c0-1.78.73-2.37,1.87-2.37a4.34,4.34,0,0,1,1,.14,2.89,2.89,0,0,1,0,.35l-.07,0a4.27,4.27,0,0,0-.85-.12c-1,0-1.42.47-1.42,2v.22c0,1.45.51,1.84,1.17,1.84A1.35,1.35,0,0,0,64,35Z"/><path class="cls-2" d="M63,35.85c-.76,0-1.67-.41-1.67-2.34v-.25c0-1.67.62-2.45,2-2.45a4.13,4.13,0,0,1,1,.15.07.07,0,0,1,0,.08,3.14,3.14,0,0,1,0,.35s0,.05,0,.06l-.06,0h-.06a3.55,3.55,0,0,0-.83-.12c-.81,0-1.34.33-1.34,1.92v.22c0,1.58.62,1.76,1.09,1.76a1.22,1.22,0,0,0,.78-.29V33.12A.08.08,0,0,1,64,33h.49a.08.08,0,0,1,.08.08v2.57a.09.09,0,0,1-.08.08h-.29a.09.09,0,0,1-.07-.06l0-.19A1.72,1.72,0,0,1,63,35.85ZM63.32,31c-1.22,0-1.79.73-1.79,2.29v.25c0,1.45.5,2.18,1.51,2.18a1.54,1.54,0,0,0,1-.37.1.1,0,0,1,.07,0,.09.09,0,0,1,.06.06l.06.25h.15V33.2h-.33V35a.09.09,0,0,1,0,.07h0a1.38,1.38,0,0,1-.9.35c-.84,0-1.25-.63-1.25-1.92V33.3c0-1.47.43-2.07,1.5-2.07a4.07,4.07,0,0,1,.84.11h0s0-.15,0-.24A4.66,4.66,0,0,0,63.32,31Z"/><path class="cls-2" d="M65.27,35.69v-5h.49v1.69h0A1.92,1.92,0,0,1,67,31.89,1,1,0,0,1,68.1,33v2.67h-.49V33.1c0-.57-.28-.8-.72-.8a1.86,1.86,0,0,0-1.13.46v2.93Z"/><path class="cls-2" d="M68.1,35.77h-.49a.08.08,0,0,1-.07-.08V33.1c0-.49-.21-.72-.65-.72a1.7,1.7,0,0,0-1,.42v2.89a.09.09,0,0,1-.08.08h-.49a.08.08,0,0,1-.07-.08v-5a.08.08,0,0,1,.07-.08h.49a.09.09,0,0,1,.08.08v1.54A1.91,1.91,0,0,1,67,31.81,1.09,1.09,0,0,1,68.18,33v2.67A.09.09,0,0,1,68.1,35.77Zm-.41-.16H68V33A.93.93,0,0,0,67,32a1.88,1.88,0,0,0-1.21.47h-.06a.07.07,0,0,1-.08-.07V30.77h-.33v4.84h.33V32.76a.07.07,0,0,1,0-.06,1.89,1.89,0,0,1,1.18-.47c.53,0,.8.3.8.87Z"/><path class="cls-2" d="M70.36,31.89c.92,0,1.46.66,1.46,1.79V34c0,1.14-.54,1.79-1.46,1.79H70.3c-.92,0-1.45-.65-1.45-1.79v-.3c0-1.13.53-1.79,1.45-1.79Zm1,1.71c0-.77-.3-1.3-1-1.3s-1,.53-1,1.3v.47c0,.77.3,1.29,1,1.29s1-.52,1-1.29Z"/><path class="cls-2" d="M70.36,35.85H70.3c-1,0-1.53-.7-1.53-1.87v-.3c0-1.17.57-1.87,1.53-1.87h.06c1,0,1.54.7,1.54,1.87V34C71.9,35.15,71.32,35.85,70.36,35.85ZM70.3,32c-.87,0-1.37.62-1.37,1.71V34c0,1.09.5,1.71,1.37,1.71h.06c.88,0,1.38-.62,1.38-1.71v-.3c0-1.09-.5-1.71-1.38-1.71Zm0,3.47c-.69,0-1.08-.49-1.08-1.37V33.6c0-.89.39-1.37,1.08-1.37s1.08.48,1.08,1.37v.47C71.41,35,71,35.44,70.33,35.44Zm0-3.06c-.76,0-.92.66-.92,1.22v.47c0,.8.31,1.21.92,1.21s.93-.41.93-1.21V33.6C71.26,33,71.1,32.38,70.33,32.38Z"/><path class="cls-2" d="M72.51,35.32l.07,0a5,5,0,0,0,.91.09c.65,0,1-.24,1-.71s-.18-.52-.73-.64l-.43-.09c-.6-.13-.94-.35-.94-1s.36-1.07,1.42-1.07a5,5,0,0,1,.83.09c0,.15,0,.34,0,.37l-.08,0a4.6,4.6,0,0,0-.72-.08c-.73,0-.94.28-.94.66s.23.48.62.56l.44.1c.75.15,1,.5,1,1,0,.72-.48,1.12-1.45,1.12a4.7,4.7,0,0,1-1-.09A2.78,2.78,0,0,1,72.51,35.32Z"/><path class="cls-2" d="M73.51,35.85a5.31,5.31,0,0,1-1-.09.09.09,0,0,1-.06-.07c0-.14,0-.36,0-.37a.08.08,0,0,1,0-.07l.07,0a.07.07,0,0,1,.06,0,4.93,4.93,0,0,0,.89.09c.61,0,.91-.21.91-.63,0-.25-.11-.44-.67-.56L73.3,34c-.52-.11-1-.31-1-1,0-.34.14-1.15,1.5-1.15a4.25,4.25,0,0,1,.85.1.06.06,0,0,1,.06.08v.17c0,.13,0,.18,0,.21a.07.07,0,0,1,0,.05l-.07,0h0a4.77,4.77,0,0,0-.71-.08c-.76,0-.86.31-.86.58s.06.38.56.49l.44.09c.75.16,1.1.51,1.1,1.11S74.78,35.85,73.51,35.85Zm-.89-.24a4.24,4.24,0,0,0,.89.08c.91,0,1.37-.35,1.37-1,0-.52-.3-.81-1-1l-.44-.09c-.46-.1-.69-.31-.69-.64,0-.49.33-.73,1-.73a4.37,4.37,0,0,1,.71.07h0s0-.09,0-.14,0-.07,0-.1A4.18,4.18,0,0,0,73.8,32c-.87,0-1.35.35-1.35,1s.24.74.89.88l.43.09c.55.13.79.34.79.72s-.19.79-1.07.79a5,5,0,0,1-.89-.09h0C72.6,35.42,72.61,35.52,72.62,35.61Z"/><path class="cls-2" d="M75.33,32h.56l.11-.86h.37V32h1v.41h-1v2.33c0,.5.23.64.55.64a1.81,1.81,0,0,0,.37,0l.07,0v.35a1.83,1.83,0,0,1-.5.07c-.66,0-1-.32-1-1V32.39h-.56Z"/><path class="cls-2" d="M76.86,35.85c-.7,0-1-.36-1-1.11V32.47h-.48a.09.09,0,0,1-.08-.08V32a.08.08,0,0,1,.08-.08h.49l.1-.79A.08.08,0,0,1,76,31h.37a.08.08,0,0,1,.08.08v.78h.91a.08.08,0,0,1,.08.08v.41a.09.09,0,0,1-.08.08h-.91v2.25c0,.49.22.56.47.56a2,2,0,0,0,.36,0s0,0,0,0l.07,0a.1.1,0,0,1,0,.07v.35a.08.08,0,0,1,0,.08A2.21,2.21,0,0,1,76.86,35.85Zm-1.45-3.54h.48a.09.09,0,0,1,.08.08v2.35c0,.66.27.95.89.95a1.83,1.83,0,0,0,.42,0V35.4a2,2,0,0,1-.36,0q-.63,0-.63-.72V32.39a.09.09,0,0,1,.08-.08h.91v-.26h-.91a.08.08,0,0,1-.08-.07V31.2h-.22L76,32a.08.08,0,0,1-.08.06h-.48Z"/><path class="cls-2" d="M81.18,35.69,79.8,33.52h-.45v2.17h-.48V31h.48V33.1h.45L81.16,31h.54L80.22,33.3c.23.4,1.29,2,1.52,2.39Z"/><path class="cls-2" d="M81.74,35.77h-.56a.1.1,0,0,1-.07,0L79.75,33.6h-.32v2.09a.09.09,0,0,1-.08.08h-.48a.09.09,0,0,1-.08-.08V31a.08.08,0,0,1,.08-.08h.48a.08.08,0,0,1,.08.08v2h.33l1.33-2.09a.08.08,0,0,1,.07,0h.54a.08.08,0,0,1,.07,0,.11.11,0,0,1,0,.08L80.31,33.3c.14.23.46.74.78,1.22l.71,1.11a.14.14,0,0,1,0,.06A.09.09,0,0,1,81.74,35.77Zm-.52-.16h.38c-.14-.23-.39-.61-.64-1s-.69-1.06-.81-1.27a.11.11,0,0,1,0-.08l1.41-2.2H81.2l-1.33,2.09a.08.08,0,0,1-.07,0h-.45a.08.08,0,0,1-.08-.08v-2H79v4.55h.32V33.52a.08.08,0,0,1,.08-.08h.45a.06.06,0,0,1,.06,0Z"/><path class="cls-2" d="M82.49,30.79a.32.32,0,1,1-.33.32A.31.31,0,0,1,82.49,30.79ZM82.25,32h.48v3.71h-.48Z"/><path class="cls-2" d="M82.73,35.77h-.48a.09.09,0,0,1-.08-.08V32a.08.08,0,0,1,.08-.08h.48a.07.07,0,0,1,.08.08v3.71A.08.08,0,0,1,82.73,35.77Zm-.4-.16h.32V32.05h-.32Zm.16-4.11a.4.4,0,1,1,.4-.39A.39.39,0,0,1,82.49,31.5Zm0-.63a.23.23,0,0,0-.25.24.22.22,0,0,0,.25.23.22.22,0,0,0,.24-.23A.22.22,0,0,0,82.49,30.87Z"/><path class="cls-2" d="M83.33,32h.55l.11-.86h.38V32h1v.41h-1v2.33c0,.5.22.64.54.64a2,2,0,0,0,.38,0l.06,0v.35a1.8,1.8,0,0,1-.49.07c-.66,0-1-.32-1-1V32.39h-.55Z"/><path class="cls-2" d="M84.86,35.85c-.71,0-1.06-.36-1.06-1.11V32.47h-.47a.08.08,0,0,1-.08-.08V32a.07.07,0,0,1,.08-.08h.48l.11-.79A.08.08,0,0,1,84,31h.38a.08.08,0,0,1,.07.08v.78h.91a.07.07,0,0,1,.08.08v.41a.08.08,0,0,1-.08.08h-.91v2.25c0,.49.23.56.47.56a1.77,1.77,0,0,0,.36,0,0,0,0,0,1,0,0l.07,0a.08.08,0,0,1,0,.07v.35a.08.08,0,0,1-.05.08A2.18,2.18,0,0,1,84.86,35.85ZM83.4,32.31h.48a.08.08,0,0,1,.08.08v2.35c0,.66.28.95.9.95a1.83,1.83,0,0,0,.42,0V35.4a2.28,2.28,0,0,1-.37,0c-.42,0-.62-.24-.62-.72V32.39a.08.08,0,0,1,.08-.08h.91v-.26h-.91a.07.07,0,0,1-.08-.07V31.2h-.23L84,32s0,.06-.08.06H83.4Z"/><path class="cls-2" d="M88.18,35.61a2.27,2.27,0,0,1-.84.16c-1,0-1.54-.49-1.54-1.83v-.11c0-1.43.56-1.94,1.58-1.94a2.32,2.32,0,0,1,.73.11c0,.13,0,.35,0,.35l0,0a3,3,0,0,0-.63-.08c-.66,0-1.1.27-1.1,1.54v.1c0,1.23.54,1.42,1.09,1.42a2.49,2.49,0,0,0,.7-.13l.06,0A2.32,2.32,0,0,1,88.18,35.61Z"/><path class="cls-2" d="M87.34,35.85c-1.1,0-1.62-.61-1.62-1.91v-.11c0-1.38.53-2,1.66-2a2.84,2.84,0,0,1,.76.11.11.11,0,0,1,0,.09l0,.35a.1.1,0,0,1,0,0l0,0H88a3.08,3.08,0,0,0-.61-.08c-.63,0-1,.25-1,1.46v.1c0,1.18.51,1.34,1,1.34a2.75,2.75,0,0,0,.68-.12h.06l.06,0a.07.07,0,0,1,0,0,2.82,2.82,0,0,1,.05.35.07.07,0,0,1,0,.08A2.33,2.33,0,0,1,87.34,35.85Zm0-3.88c-1,0-1.5.56-1.5,1.86v.11c0,1.23.44,1.75,1.46,1.75a2.43,2.43,0,0,0,.76-.13c0-.09,0-.19,0-.24a2.63,2.63,0,0,1-.69.12c-.54,0-1.17-.17-1.17-1.5v-.1c0-1.15.35-1.61,1.18-1.61a3.3,3.3,0,0,1,.61.07c0-.06,0-.16,0-.25A2.42,2.42,0,0,0,87.38,32Z"/><path class="cls-2" d="M88.8,35.69v-5h.48v1.69h0a1.91,1.91,0,0,1,1.25-.49A1,1,0,0,1,91.62,33v2.67h-.48V33.1c0-.57-.28-.8-.72-.8a1.88,1.88,0,0,0-1.14.46v2.93Z"/><path class="cls-2" d="M91.62,35.77h-.48a.09.09,0,0,1-.08-.08V33.1c0-.49-.2-.72-.64-.72a1.76,1.76,0,0,0-1.06.42v2.89a.08.08,0,0,1-.08.08H88.8a.09.09,0,0,1-.08-.08v-5a.09.09,0,0,1,.08-.08h.48a.08.08,0,0,1,.08.08v1.54a2,2,0,0,1,1.19-.42A1.09,1.09,0,0,1,91.7,33v2.67A.08.08,0,0,1,91.62,35.77Zm-.4-.16h.33V33a.94.94,0,0,0-1-1.05,1.88,1.88,0,0,0-1.2.47h-.07a.07.07,0,0,1-.07-.07V30.77h-.33v4.84h.33V32.76a.11.11,0,0,1,0-.06,1.94,1.94,0,0,1,1.19-.47c.52,0,.8.3.8.87Z"/><path class="cls-2" d="M92.86,34c0,1,.47,1.35,1.17,1.35a2.58,2.58,0,0,0,.92-.2l.07,0s0,.22,0,.33a2.23,2.23,0,0,1-1.1.25c-1,0-1.59-.57-1.59-1.83v-.25c0-1.14.61-1.8,1.48-1.8h.05c.79,0,1.3.47,1.3,1.46v.12a4.16,4.16,0,0,1,0,.54Zm0-.37h1.88v-.32c0-.81-.43-1-.85-1h0c-.51,0-1,.36-1,1.25Z"/><path class="cls-2" d="M94,35.85c-1.09,0-1.66-.66-1.66-1.91v-.25c0-1.14.6-1.88,1.55-1.88h.05c.87,0,1.38.56,1.38,1.54v.12a4.41,4.41,0,0,1,0,.55.08.08,0,0,1-.08.07H92.94c0,.82.36,1.19,1.09,1.19a2.28,2.28,0,0,0,.83-.17l.06,0H95l.07,0s0,0,0,.07h0v0l0,.28a.07.07,0,0,1,0,.06A2.06,2.06,0,0,1,94,35.85ZM93.85,32c-.85,0-1.4.67-1.4,1.72v.25c0,1.16.51,1.75,1.51,1.75a2.11,2.11,0,0,0,1-.22c0-.07,0-.17,0-.22h0a2.21,2.21,0,0,1-.88.19c-.84,0-1.25-.47-1.25-1.43a.08.08,0,0,1,.08-.08h2.22a2.81,2.81,0,0,0,0-.46v-.12c0-.89-.43-1.38-1.22-1.38Zm.89,1.75H92.86a.08.08,0,0,1-.08-.08v-.09c0-1,.55-1.32,1.06-1.32h0c.35,0,.93.14.93,1.09v.32A.09.09,0,0,1,94.74,33.72Zm-1.8-.16h1.72v-.24c0-.62-.26-.94-.77-.94h0c-.57,0-.9.44-.9,1.17Z"/><path class="cls-2" d="M96,35.69V32h.29l.15.44a2,2,0,0,1,1.31-.53A1,1,0,0,1,98.8,33v2.67h-.48V33.1c0-.57-.28-.8-.72-.8a1.88,1.88,0,0,0-1.14.46v2.93Z"/><path class="cls-2" d="M98.8,35.77h-.48a.09.09,0,0,1-.08-.08V33.1c0-.49-.2-.72-.64-.72a1.76,1.76,0,0,0-1.06.42v2.89a.09.09,0,0,1-.08.08H96a.08.08,0,0,1-.08-.08V32A.07.07,0,0,1,96,31.9h.29a.08.08,0,0,1,.08.05l.11.33a2,2,0,0,1,1.27-.47A1.08,1.08,0,0,1,98.88,33v2.67A.09.09,0,0,1,98.8,35.77Zm-.4-.16h.32V33a.93.93,0,0,0-1-1.05,1.91,1.91,0,0,0-1.26.51.08.08,0,0,1-.08,0s0,0,0-.05l-.12-.39h-.16v3.56h.32V32.76a.07.07,0,0,1,0-.06,1.94,1.94,0,0,1,1.19-.47c.52,0,.8.3.8.87Z"/><path class="cls-2" d="M56.5,37.09h1c.84,0,1.25.38,1.25,1.08v0a.79.79,0,0,1-.46.84v0a.85.85,0,0,1,.58.94v0a1,1,0,0,1-1.05,1.09H56.5Zm.41.34v1.51h.86a.55.55,0,0,0,.58-.62v-.13c0-.5-.26-.76-.87-.76Zm0,1.83v1.57h.86a.64.64,0,0,0,.7-.71V40a.62.62,0,0,0-.7-.69Z"/><path class="cls-2" d="M57.83,41.17H56.49V37.08h1a1.35,1.35,0,0,1,.94.28,1,1,0,0,1,.31.81v0a.81.81,0,0,1-.45.85h0c.4.13.58.43.58,1v0a1.21,1.21,0,0,1-.23.75A1,1,0,0,1,57.83,41.17Zm-1.32,0h1.32a1,1,0,0,0,1-1.08v0c0-.51-.18-.81-.57-.93h0v0h0a.81.81,0,0,0,.45-.84v0c0-.71-.42-1.08-1.24-1.08h-1Zm1.26-.33H56.9V39.25h.87a.63.63,0,0,1,.71.7v.17A.65.65,0,0,1,57.77,40.83Zm-.86,0h.86a.64.64,0,0,0,.7-.7V40a.62.62,0,0,0-.7-.68h-.86ZM57.77,39H56.9V37.42h.58c.59,0,.88.25.88.77v.13A.56.56,0,0,1,57.77,39Zm-.86,0h.86a.54.54,0,0,0,.57-.61v-.13c0-.51-.28-.76-.86-.76h-.57Z"/><path class="cls-2" d="M61.28,39.11c0-.58-.19-.87-.89-.87a3.05,3.05,0,0,0-.82.12l0,0a2.21,2.21,0,0,1,.06-.32,2.93,2.93,0,0,1,.84-.12c.94,0,1.26.42,1.26,1.23v1.31c0,.34.11.44.32.47l.1,0,0,.05-.06.24a.49.49,0,0,1-.2,0c-.33,0-.53-.22-.57-.59h0a1.16,1.16,0,0,1-1,.59.94.94,0,0,1-1-1v0c0-.57.31-.92,1-1l1-.11Zm0,1.15v-.78l-.88.11c-.53.06-.7.3-.7.64v0a.59.59,0,0,0,.62.62A1.25,1.25,0,0,0,61.28,40.26Z"/><path class="cls-2" d="M61.86,41.25a.56.56,0,0,1-.57-.59h0a1.15,1.15,0,0,1-1,.59,1,1,0,0,1-1-1v0c0-.59.34-.93,1-1l1-.11v0c0-.53-.15-.87-.88-.87a2.93,2.93,0,0,0-.82.13h0l-.06,0h0s.05-.27.06-.32h0a3.14,3.14,0,0,1,.85-.12c.89,0,1.27.37,1.27,1.24v1.31c0,.34.11.43.31.47l.1,0,0,.05h0l-.06.24h0A.31.31,0,0,1,61.86,41.25Zm-.59-.6h0a.55.55,0,0,0,.56.58.4.4,0,0,0,.19,0s.05-.19.06-.23l0,0-.09,0c-.2,0-.32-.13-.32-.48V39.11c0-.86-.38-1.22-1.26-1.22a2.71,2.71,0,0,0-.84.12c0,.05,0,.26,0,.3l0,0a3.23,3.23,0,0,1,.82-.12c.74,0,.89.34.89.88v0h0l-1,.12c-.67.08-1,.4-1,1v0a.93.93,0,0,0,1,.94,1.13,1.13,0,0,0,1-.58Zm-1,.24a.59.59,0,0,1-.63-.63v0c0-.39.22-.59.71-.65l.88-.1v.78h0A1.2,1.2,0,0,1,60.32,40.89Zm1-1.4-.87.11c-.48,0-.7.25-.7.63v0a.58.58,0,0,0,.62.61,1.18,1.18,0,0,0,1-.61Z"/><path class="cls-2" d="M62.62,41.17V38h.25l.12.38a1.75,1.75,0,0,1,1.11-.45.86.86,0,0,1,.91,1v2.32H64.6V38.92c0-.49-.24-.68-.61-.68a1.54,1.54,0,0,0-1,.39v2.54Z"/><path class="cls-2" d="M65,41.17h-.42V38.92c0-.45-.2-.68-.6-.68a1.57,1.57,0,0,0-1,.4v2.53h-.42V37.94h.26l.12.37a1.7,1.7,0,0,1,1.1-.45.87.87,0,0,1,.91,1Zm-.4,0H65V38.85a.86.86,0,0,0-.9-1,1.7,1.7,0,0,0-1.1.45h0L62.87,38h-.24v3.2H63V38.63h0a1.49,1.49,0,0,1,1-.4c.41,0,.62.23.62.69Z"/><path class="cls-2" d="M66.79,37.88a1.13,1.13,0,0,1,.84.33.79.79,0,0,1,.6-.26h.09v.32l0,0h-.08a.56.56,0,0,0-.4.14,1.08,1.08,0,0,1,.12.52A1,1,0,0,1,66.79,40h-.07a1.25,1.25,0,0,1-.45-.07.7.7,0,0,0-.19.42c0,.2.13.32.37.32h.72c.68,0,1,.38,1,.81v0c0,.45-.34.91-1.27.91h-.19c-.79,0-1.18-.36-1.18-.81v0A.8.8,0,0,1,66,41h0a.56.56,0,0,1-.28-.48,1.09,1.09,0,0,1,.29-.65,1,1,0,0,1-.4-.87,1.06,1.06,0,0,1,1.13-1.09Zm-.35,3.19h-.12a.64.64,0,0,0-.37.54c0,.33.27.53.8.53h.13c.65,0,.89-.21.89-.56v0c0-.27-.17-.49-.64-.49ZM66,39v0a.76.76,0,0,0,1.51,0v0a.69.69,0,0,0-.76-.74A.69.69,0,0,0,66,39Z"/><path class="cls-2" d="M66.91,42.48h-.19c-.87,0-1.18-.41-1.18-.81v0A.78.78,0,0,1,66,41h0a.55.55,0,0,1-.28-.48,1,1,0,0,1,.29-.65,1,1,0,0,1-.39-.87,1.06,1.06,0,0,1,1.13-1.1h.07a1.14,1.14,0,0,1,.84.33.79.79,0,0,1,.6-.26h.1v.34l-.06,0h-.08a.59.59,0,0,0-.39.13,1.14,1.14,0,0,1,.12.52,1,1,0,0,1-.33.82,1.18,1.18,0,0,1-.8.26h-.07a1.63,1.63,0,0,1-.45-.07.71.71,0,0,0-.19.41c0,.2.14.32.37.32h.72c.75,0,1,.43,1,.81v0C68.19,42,67.85,42.48,66.91,42.48Zm-.19-4.59A1.05,1.05,0,0,0,65.6,39a1,1,0,0,0,.39.86h0a1,1,0,0,0-.29.65A.53.53,0,0,0,66,41h0v0h0a.79.79,0,0,0-.43.66v0c0,.49.45.8,1.17.8h.19a1.53,1.53,0,0,0,1-.28.82.82,0,0,0,.28-.62v0c0-.48-.39-.8-1-.8h-.72c-.24,0-.38-.12-.38-.33a.72.72,0,0,1,.19-.43h0a1.29,1.29,0,0,0,.45.07h.07A1,1,0,0,0,67.91,39a1.14,1.14,0,0,0-.13-.52h0a.66.66,0,0,1,.41-.14h.08l0,0V38h-.08a.77.77,0,0,0-.6.26h0a1.08,1.08,0,0,0-.83-.33Zm.16,4.26h-.13c-.51,0-.81-.2-.81-.54a.67.67,0,0,1,.37-.55h.82c.56,0,.65.3.65.49v0Q67.78,42.15,66.88,42.15Zm-.56-1.07a.62.62,0,0,0-.36.53c0,.34.28.53.79.53h.13c.59,0,.88-.19.88-.56v0c0-.31-.22-.48-.63-.48h-.81Zm.43-1.37A.67.67,0,0,1,66,39v0a.76.76,0,0,1,1.52,0v0A.66.66,0,0,1,66.75,39.71Zm0-1.49A.68.68,0,0,0,66,39v0a.75.75,0,0,0,1.49,0v0A.69.69,0,0,0,66.75,38.22Z"/><path class="cls-2" d="M69.21,36.84v3.58c0,.37.12.46.35.46a.86.86,0,0,0,.19,0l0,0v.28a1.11,1.11,0,0,1-.34.05c-.47,0-.66-.28-.66-.8v-3.6Z"/><path class="cls-2" d="M69.46,41.25c-.45,0-.66-.26-.66-.81V36.83h.42v3.59c0,.38.13.45.34.45h.19l.06.06v.29h0A1.11,1.11,0,0,1,69.46,41.25Zm-.65-4.4v3.59c0,.54.21.79.65.79a1.67,1.67,0,0,0,.33,0v-.27l0-.05-.19,0c-.22,0-.36-.08-.36-.47V36.85Z"/><path class="cls-2" d="M72.11,39.11c0-.58-.18-.87-.89-.87a3.05,3.05,0,0,0-.82.12l-.05,0s.05-.27.06-.32a2.93,2.93,0,0,1,.84-.12c.94,0,1.27.42,1.27,1.23v1.31c0,.34.1.44.31.47l.1,0L73,41l-.06.24a.49.49,0,0,1-.2,0c-.33,0-.53-.22-.56-.59h0a1.16,1.16,0,0,1-1,.59.94.94,0,0,1-1-1v0c0-.57.31-.92,1-1l1-.11Zm0,1.15v-.78l-.88.11c-.53.06-.7.3-.7.64v0a.59.59,0,0,0,.62.62A1.25,1.25,0,0,0,72.11,40.26Z"/><path class="cls-2" d="M72.69,41.25a.57.57,0,0,1-.57-.59h0a1.15,1.15,0,0,1-1,.59,1,1,0,0,1-1-1v0c0-.59.34-.93,1-1l1-.11v0c0-.53-.15-.87-.88-.87a3,3,0,0,0-.82.13h0l-.06,0h0s0-.27.06-.32h0a3,3,0,0,1,.84-.12c.89,0,1.27.37,1.27,1.24v1.31c0,.34.12.43.31.47l.1,0L73,41h0l-.06.24h0A.31.31,0,0,1,72.69,41.25Zm-.59-.6h0c0,.37.24.58.56.58a.4.4,0,0,0,.19,0S72.93,41,73,41l0,0-.09,0c-.2,0-.32-.13-.32-.48V39.11c0-.86-.38-1.22-1.26-1.22a2.69,2.69,0,0,0-.83.12,1.77,1.77,0,0,0-.06.3l0,0a3.32,3.32,0,0,1,.82-.12c.75,0,.9.34.9.88v0h0l-1,.12c-.67.08-1,.4-1,1v0a.93.93,0,0,0,1,.94,1.13,1.13,0,0,0,1-.58Zm-.95.24a.6.6,0,0,1-.63-.63v0c0-.39.23-.59.71-.65l.89-.1v.78h0A1.19,1.19,0,0,1,71.15,40.89Zm.95-1.4-.87.11c-.47,0-.69.25-.69.63v0a.57.57,0,0,0,.61.61,1.18,1.18,0,0,0,.95-.61Z"/><path class="cls-2" d="M75.76,36.84v3.58c0,.33.09.44.31.47l.1,0,0,.05-.06.24a.49.49,0,0,1-.2,0,.55.55,0,0,1-.56-.56h0a1.17,1.17,0,0,1-1,.56c-.58,0-1-.41-1-1.51v-.3c0-1.11.5-1.55,1.2-1.55a1.35,1.35,0,0,1,.84.3V36.84Zm-2,2.87c0,.75.21,1.17.69,1.17a1.27,1.27,0,0,0,.94-.62V38.53a1.24,1.24,0,0,0-.78-.29c-.48,0-.85.27-.85,1.24Z"/><path class="cls-2" d="M75.93,41.25a.56.56,0,0,1-.56-.56h0a1.18,1.18,0,0,1-1,.56c-.39,0-1.06-.2-1.06-1.52v-.3a1.85,1.85,0,0,1,.34-1.2,1.1,1.1,0,0,1,.87-.36,1.37,1.37,0,0,1,.83.3V36.83h.42v3.59c0,.31.08.43.31.47l.1,0,0,0h0l-.06.24h0A.39.39,0,0,1,75.93,41.25Zm-.59-.58h0a.54.54,0,0,0,.55.55.51.51,0,0,0,.2,0l.06-.23,0,0-.09,0c-.24,0-.32-.17-.32-.48V36.85h-.39V38.2h0a1.32,1.32,0,0,0-.83-.3c-.54,0-1.19.26-1.19,1.54v.3c0,1,.37,1.5,1,1.5a1.17,1.17,0,0,0,1-.56Zm-.93.22c-.46,0-.7-.4-.7-1.18v-.23c0-.84.28-1.25.86-1.25a1.26,1.26,0,0,1,.77.28h0v1.74h0A1.22,1.22,0,0,1,74.41,40.89Zm.16-2.65c-.57,0-.84.41-.84,1.24v.23c0,.77.23,1.16.68,1.16a1.2,1.2,0,0,0,.93-.61V38.53h0A1.21,1.21,0,0,0,74.57,38.24Z"/><path class="cls-2" d="M77,39.71c0,.89.39,1.17,1,1.17a2,2,0,0,0,.77-.17l.06,0s0,.19,0,.28a1.71,1.71,0,0,1-.92.22c-.85,0-1.34-.49-1.34-1.59v-.21c0-1,.52-1.56,1.24-1.56h0c.66,0,1.09.41,1.09,1.27v.09c0,.21,0,.47,0,.47Zm0-.32h1.59v-.28c0-.69-.36-.87-.72-.87h0c-.44,0-.83.31-.83,1.07Z"/><path class="cls-2" d="M77.89,41.25a1.22,1.22,0,0,1-1-.39,1.77,1.77,0,0,1-.36-1.21v-.21c0-1,.49-1.57,1.25-1.57h0c.71,0,1.1.45,1.1,1.28v.09a3.71,3.71,0,0,1,0,.47H77c0,.79.31,1.15,1,1.15a1.86,1.86,0,0,0,.72-.15l0,0h0l.07,0h0v0c0,.06,0,.17,0,.24h0A1.72,1.72,0,0,1,77.89,41.25Zm-.1-3.36c-.75,0-1.23.6-1.23,1.55v.21c0,1.05.45,1.58,1.33,1.58a1.72,1.72,0,0,0,.92-.22c0-.06,0-.17,0-.23v0l-.06,0,0,0a2,2,0,0,1-.72.15c-.68,0-1-.37-1-1.18h1.94a3.24,3.24,0,0,0,0-.47v-.09c0-.82-.39-1.26-1.09-1.26Zm.76,1.51H77v-.09a1.21,1.21,0,0,1,.26-.83.75.75,0,0,1,.58-.25h0c.33,0,.72.15.72.88Zm-1.58,0h1.57v-.27c0-.71-.39-.87-.71-.87h0c-.52,0-.82.4-.82,1.07Z"/><path class="cls-2" d="M79.52,40.85l.06-.05a4,4,0,0,0,.76.08c.55,0,.84-.2.84-.61s-.15-.45-.62-.56l-.36-.08c-.51-.11-.8-.3-.8-.82s.31-.93,1.21-.93a4,4,0,0,1,.7.08c0,.12,0,.29,0,.31l-.06,0a4.65,4.65,0,0,0-.61-.06c-.62,0-.8.23-.8.57s.2.41.53.48l.37.08c.63.14.88.44.88.9,0,.62-.41,1-1.23,1a3.79,3.79,0,0,1-.81-.08C79.53,41,79.52,40.85,79.52,40.85Z"/><path class="cls-2" d="M80.36,41.25a3.91,3.91,0,0,1-.81-.08h0c0-.12,0-.31,0-.31h0l.07-.05h0a3.2,3.2,0,0,0,.76.08c.55,0,.83-.2.83-.6s-.18-.45-.61-.55l-.36-.08c-.48-.1-.8-.29-.8-.83a.88.88,0,0,1,.26-.66,1.38,1.38,0,0,1,1-.28,4.2,4.2,0,0,1,.7.08h0s0,.1,0,.15,0,.15,0,.17h0l-.07,0h0a3.81,3.81,0,0,0-.6-.07c-.54,0-.79.18-.79.57,0,.24.17.4.52.48l.37.08c.6.13.88.41.88.9S81.17,41.25,80.36,41.25Zm-.8-.1a3.75,3.75,0,0,0,.8.08c.8,0,1.22-.33,1.22-1s-.28-.76-.87-.89l-.37-.08c-.36-.08-.54-.24-.54-.49,0-.4.26-.58.81-.58a3.62,3.62,0,0,1,.61.07l0,0a1.3,1.3,0,0,0,0-.17s0-.09,0-.14a4.39,4.39,0,0,0-.69-.07,1.41,1.41,0,0,0-.94.27.86.86,0,0,0-.26.65c0,.53.32.71.79.82l.37.08c.44.1.62.26.62.56s-.29.62-.85.62a3.82,3.82,0,0,1-.76-.08l-.06,0S79.54,41.05,79.56,41.15Z"/><path class="cls-2" d="M82.2,41.17V36.84h.41V38.3h0a1.57,1.57,0,0,1,1.06-.42.86.86,0,0,1,.9,1v2.32h-.41V38.92c0-.49-.23-.68-.6-.68a1.52,1.52,0,0,0-1,.39v2.54Z"/><path class="cls-2" d="M84.59,41.17h-.42V38.92c0-.45-.2-.68-.6-.68a1.51,1.51,0,0,0-.95.4v2.53h-.43V36.83h.43v1.46h0a1.61,1.61,0,0,1,1.06-.42.87.87,0,0,1,.91,1Zm-.41,0h.39V38.85a.85.85,0,0,0-.89-1,1.57,1.57,0,0,0-1.05.41h0V36.85h-.39v4.31h.39V38.63h0a1.54,1.54,0,0,1,1-.4c.41,0,.61.23.61.69Z"/><path class="cls-2" d="M57.52,33a1.18,1.18,0,0,0-.64.22v-1h-.39v3.35h.27v0c0-.06,0-.12,0-.19a1,1,0,0,0,.69.29c.25,0,.84-.12.84-1.2v-.21C58.35,33.36,58.07,33,57.52,33ZM58,34.21v.16c0,.57-.17.84-.53.84a.91.91,0,0,1-.55-.26V33.53a1.1,1.1,0,0,1,.57-.21C57.72,33.32,58,33.43,58,34.21Z"/><path class="cls-2" d="M59.92,33l-.51,1.61-.07.29a1.71,1.71,0,0,0-.08-.29L58.7,33h-.41l.87,2.46-.09.28c-.12.35-.18.39-.29.39a.35.35,0,0,1-.12,0h0l-.07.07,0,.26h0a.43.43,0,0,0,.26.06c.3,0,.48-.19.63-.67L60.32,33Z"/></g></g></svg>