<svg xmlns="http://www.w3.org/2000/svg" viewBox="0 0 332.53 131.7"><defs><style>.cls-1,.cls-2{fill:#fff;}.cls-1{fill-rule:evenodd;}</style></defs><title>Onno white</title><g id="Layer_2" data-name="Layer 2"><g id="Layer_1-2" data-name="Layer 1"><path class="cls-1" d="M37.5,41.22a2.11,2.11,0,1,0,2.1,2.11A2.11,2.11,0,0,0,37.5,41.22Z"/><path class="cls-1" d="M59.41,41.22a2.11,2.11,0,1,0,2.1,2.11A2.1,2.1,0,0,0,59.41,41.22Z"/><path class="cls-2" d="M92.59,34.25a1.1,1.1,0,0,0-1.15,1v6.19H90V35.28a1.15,1.15,0,0,0-2.29,0v6.19H86.28V35.28a1.15,1.15,0,0,0-2.28,0v7h0c0,2.35,1,4.49,3.51,5.06l0,.27a39.07,39.07,0,0,1-75.72,6.35,1.32,1.32,0,0,0-2.5.82A41.7,41.7,0,0,0,90.07,48s0-.26.06-.43l0-.23h0c2.51-.54,3.54-2.7,3.57-5.07h0v-7A1.09,1.09,0,0,0,92.59,34.25Z"/><path class="cls-2" d="M9.89,39.06a39.06,39.06,0,0,1,76.74-7.34,1.31,1.31,0,1,0,2.54-.67A41.69,41.69,0,0,0,7.26,39C-.17,40.21,3.71,52.36,8.48,52.36S17.07,40.41,9.89,39.06ZM8.48,41.37a15.56,15.56,0,0,0-2.69.24A3.42,3.42,0,0,1,8.48,40.1a3.41,3.41,0,0,1,2.69,1.51A15.47,15.47,0,0,0,8.48,41.37Z"/><path class="cls-1" d="M83.62,68.21Q81.9,55.69,80,43.17C79,36.59,77.67,30,73.66,24.54c-7-9.66-16.33-15.45-28.47-13.8-12.7,1.73-21.69,9.13-25.54,21.58-2.11,6.81-2.83,14.06-4.13,21.12-.9,4.91-1.7,9.84-2.55,14.77H13c-1.38,6.16-2.22,12.52-4.34,18.41A86.79,86.79,0,0,1,4.33,97.14a72.78,72.78,0,0,0-3.8,8.61c-1.25,3.44,0,4.76.65,5.17a11.74,11.74,0,0,0,5.47,2,18.72,18.72,0,0,0,7.12-.4A64.61,64.61,0,0,0,29,106.77c4.84-2.66,9-3.38,11.45,3.12,3,8.09,8.28,6.41,12.3,1.68,3.84-4.52,6.42-10.23,9.15-15.64,2.81-5.59,5.27-9.86,11.84-3.69,5.13,4.82,8.53.91,9.56-3.95A64.09,64.09,0,0,0,83.62,68.21ZM43.69,38.9a1,1,0,0,1-1.38-.45c-.11-.18-.19-.36-.3-.54a3.91,3.91,0,0,0-6.5-.39c-.22.3-.39.64-.6.95a1,1,0,0,1-1.33.37,1,1,0,0,1-.45-1.37,6,6,0,0,1,5.79-3.59,2.77,2.77,0,0,1,.3,0,5.87,5.87,0,0,1,4.92,3.58A1,1,0,0,1,43.69,38.9Zm9.13,6a1.36,1.36,0,0,1,0,.2A3.93,3.93,0,0,1,45,44.75a1,1,0,0,1,.92-1.14,1,1,0,0,1,1.12.93l.09.5a1.86,1.86,0,0,0,3.67-.34,1,1,0,1,1,2,.24Zm11.33-6a1,1,0,0,1-1.22-.35A4.61,4.61,0,0,1,62.6,38,3.92,3.92,0,0,0,56,37.58c-.21.29-.36.62-.57.91a1,1,0,0,1-1.5.21,1.08,1.08,0,0,1-.18-1.39,5.9,5.9,0,0,1,4.92-3.43,6,6,0,0,1,4.61,1.62,4.64,4.64,0,0,1,1.47,2.28A1,1,0,0,1,64.15,38.94Z"/><path class="cls-2" d="M129.92,77.09a23.88,23.88,0,0,1-8.81-10.24A35.76,35.76,0,0,1,118,51.36a35.74,35.74,0,0,1,3.15-15.48,23.88,23.88,0,0,1,8.81-10.24,25.83,25.83,0,0,1,26.34,0,23.47,23.47,0,0,1,8.83,10.24,36.49,36.49,0,0,1,3.08,15.48,36.5,36.5,0,0,1-3.08,15.49,23.47,23.47,0,0,1-8.83,10.24,25.83,25.83,0,0,1-26.34,0Zm26.46-8.61q4.71-5.94,4.72-17.12,0-10.94-4.78-17T143.13,28.2q-8.55,0-13.26,6.11t-4.72,17q0,11.18,4.61,17.12T143,74.41Q151.67,74.41,156.38,68.48Z"/><path class="cls-2" d="M143.13,81.39a24,24,0,0,1-22.66-14.26,36.57,36.57,0,0,1-3.21-15.77,36.63,36.63,0,0,1,3.21-15.77,25.52,25.52,0,0,1,36.17-10.53,24.19,24.19,0,0,1,9.08,10.54,37.19,37.19,0,0,1,3.16,15.76,37.2,37.2,0,0,1-3.16,15.77,24.14,24.14,0,0,1-9.08,10.54A24.88,24.88,0,0,1,143.13,81.39Zm0-58.68a22.6,22.6,0,0,0-21.38,13.46,35.21,35.21,0,0,0-3.08,15.19,35.22,35.22,0,0,0,3.08,15.2,24.1,24.1,0,0,0,34.13,10,22.79,22.79,0,0,0,8.56-10,35.82,35.82,0,0,0,3-15.2,35.8,35.8,0,0,0-3-15.19,22.84,22.84,0,0,0-8.56-10A23.48,23.48,0,0,0,143.13,22.71ZM143,75.11c-6,0-10.62-2.09-13.81-6.21s-4.75-10-4.75-17.54c0-7.41,1.63-13.29,4.85-17.46s7.93-6.39,13.83-6.39,10.44,2.15,13.75,6.38S161.8,44,161.8,51.36c0,7.57-1.64,13.47-4.87,17.54S149,75.11,143,75.11Zm.12-46.22c-5.52,0-9.67,1.91-12.7,5.83s-4.58,9.54-4.58,16.64c0,7.27,1.51,12.88,4.47,16.71s7.11,5.66,12.69,5.66,9.82-1.91,12.81-5.67,4.57-9.44,4.57-16.7c0-7.1-1.56-12.7-4.63-16.63S148.56,28.89,143.13,28.89Z"/><path class="cls-2" d="M221,43.92V76.86a3.74,3.74,0,0,1-.9,2.62,3.17,3.17,0,0,1-2.47,1,3.36,3.36,0,0,1-2.53-1,3.59,3.59,0,0,1-.95-2.62V44.38q0-8.39-3.26-12.22T200.6,28.31q-8.1,0-13,5.13t-4.88,13.73V76.86a3.74,3.74,0,0,1-.9,2.62,3.18,3.18,0,0,1-2.47,1,3.36,3.36,0,0,1-2.53-1,3.64,3.64,0,0,1-1-2.62v-51a3.64,3.64,0,0,1,1-2.62,3.35,3.35,0,0,1,2.53-1,3.13,3.13,0,0,1,2.36.92,3.59,3.59,0,0,1,.89,2.56v7.34a18.69,18.69,0,0,1,7.47-8.21A22,22,0,0,1,201.38,22Q221,22,221,43.92Z"/><path class="cls-2" d="M217.67,81.16a4.07,4.07,0,0,1-3-1.21,4.25,4.25,0,0,1-1.14-3.09V44.38c0-5.4-1.05-9.36-3.1-11.78S205.07,29,200.6,29c-5.17,0-9.36,1.65-12.46,4.91s-4.7,7.73-4.7,13.26V76.86a4.44,4.44,0,0,1-1.07,3.08,3.88,3.88,0,0,1-3,1.22,4,4,0,0,1-3-1.21,4.28,4.28,0,0,1-1.15-3.09v-51a4.29,4.29,0,0,1,1.15-3.09,4,4,0,0,1,3-1.21,3.86,3.86,0,0,1,2.87,1.15,4.21,4.21,0,0,1,1.09,3v4.66a19,19,0,0,1,6.4-6.12,22.89,22.89,0,0,1,11.65-2.95c13.51,0,20.36,7.6,20.36,22.58V76.86a4.44,4.44,0,0,1-1.07,3.08A3.88,3.88,0,0,1,217.67,81.16ZM200.6,27.63c4.91,0,8.57,1.37,10.87,4.08s3.42,6.94,3.42,12.67V76.86a3,3,0,0,0,.76,2.15,2.66,2.66,0,0,0,2,.77,2.5,2.5,0,0,0,2-.76,3.08,3.08,0,0,0,.72-2.16V43.92c0-14.27-6.2-21.21-19-21.21a21.39,21.39,0,0,0-10.93,2.76,18,18,0,0,0-7.19,7.91l-1.34,2.78V25.75a2.86,2.86,0,0,0-.71-2.09,2.44,2.44,0,0,0-1.84-.71,2.62,2.62,0,0,0-2,.78,2.92,2.92,0,0,0-.76,2.14v51a3,3,0,0,0,.76,2.15,2.65,2.65,0,0,0,2,.77,2.47,2.47,0,0,0,1.94-.76,3,3,0,0,0,.72-2.16V47.17c0-5.89,1.71-10.67,5.08-14.2S195,27.63,200.6,27.63Z"/><path class="cls-2" d="M273.91,43.92V76.86a3.74,3.74,0,0,1-.9,2.62,3.17,3.17,0,0,1-2.47,1,3.36,3.36,0,0,1-2.53-1,3.59,3.59,0,0,1-.95-2.62V44.38q0-8.39-3.26-12.22t-10.33-3.85q-8.1,0-13,5.13t-4.88,13.73V76.86a3.74,3.74,0,0,1-.91,2.62,3.15,3.15,0,0,1-2.47,1,3.32,3.32,0,0,1-2.52-1,3.6,3.6,0,0,1-1-2.62v-51a3.6,3.6,0,0,1,1-2.62,3.31,3.31,0,0,1,2.52-1,3.12,3.12,0,0,1,2.36.92,3.55,3.55,0,0,1,.9,2.56v7.34A18.57,18.57,0,0,1,243,24.88,22,22,0,0,1,254.25,22Q273.9,22,273.91,43.92Z"/><path class="cls-2" d="M270.54,81.16a4,4,0,0,1-3-1.21,4.26,4.26,0,0,1-1.15-3.09V44.38c0-5.4-1-9.36-3.09-11.78s-5.32-3.6-9.79-3.6c-5.17,0-9.36,1.65-12.46,4.91s-4.7,7.73-4.7,13.26V76.86a4.4,4.4,0,0,1-1.08,3.08,3.88,3.88,0,0,1-3,1.22,4.07,4.07,0,0,1-3-1.21,4.27,4.27,0,0,1-1.14-3.09v-51a4.29,4.29,0,0,1,1.14-3.09,4.07,4.07,0,0,1,3-1.21,3.83,3.83,0,0,1,2.87,1.15,4.18,4.18,0,0,1,1.1,3v4.66a18.92,18.92,0,0,1,6.4-6.12,22.87,22.87,0,0,1,11.65-2.95c13.51,0,20.36,7.6,20.36,22.58V76.86a4.4,4.4,0,0,1-1.08,3.08A3.84,3.84,0,0,1,270.54,81.16Z"/><path class="cls-2" d="M293.58,77.09a23.88,23.88,0,0,1-8.81-10.24,35.76,35.76,0,0,1-3.15-15.49,35.74,35.74,0,0,1,3.15-15.48,23.25,23.25,0,0,1,22-13.85,24.16,24.16,0,0,1,13.14,3.61,23.45,23.45,0,0,1,8.82,10.24,36.34,36.34,0,0,1,3.09,15.48,36.35,36.35,0,0,1-3.09,15.49,23.45,23.45,0,0,1-8.82,10.24,25.83,25.83,0,0,1-26.34,0ZM320,68.48q4.73-5.94,4.72-17.12,0-10.94-4.77-17t-13.2-6.11q-8.53,0-13.26,6.11t-4.71,17q0,11.18,4.6,17.12t13.26,5.93Q315.31,74.41,320,68.48Z"/><path class="cls-2" d="M306.78,81.39a24,24,0,0,1-22.65-14.26,36.46,36.46,0,0,1-3.22-15.77,36.52,36.52,0,0,1,3.22-15.77A25.52,25.52,0,0,1,320.3,25.06a24.19,24.19,0,0,1,9.08,10.54,37.16,37.16,0,0,1,3.15,15.76,37.17,37.17,0,0,1-3.15,15.77,24.13,24.13,0,0,1-9.08,10.54A24.89,24.89,0,0,1,306.78,81.39Zm0-58.68a22.57,22.57,0,0,0-21.37,13.46,35.24,35.24,0,0,0-3.09,15.19,35.22,35.22,0,0,0,3.09,15.2,24.1,24.1,0,0,0,34.13,10,22.79,22.79,0,0,0,8.56-10,35.79,35.79,0,0,0,3-15.2,35.77,35.77,0,0,0-3-15.19,22.84,22.84,0,0,0-8.56-10A23.49,23.49,0,0,0,306.78,22.71Zm-.11,52.4c-6,0-10.62-2.09-13.82-6.21s-4.74-10-4.74-17.54c0-7.41,1.63-13.29,4.85-17.46s7.92-6.39,13.82-6.39,10.45,2.15,13.76,6.38,4.92,10.06,4.92,17.47c0,7.57-1.64,13.47-4.87,17.54S312.64,75.11,306.67,75.11Zm.11-46.22c-5.43,0-9.7,2-12.69,5.83s-4.58,9.54-4.58,16.64c0,7.27,1.5,12.89,4.47,16.71s7.1,5.66,12.69,5.66,9.82-1.91,12.81-5.67,4.57-9.44,4.57-16.7c0-7.1-1.55-12.7-4.63-16.63S312.21,28.89,306.78,28.89Z"/><path class="cls-2" d="M198.32,108.57v-5.91h1.49v8h-.87l-.25-.95a5.05,5.05,0,0,1-3.27,1.21c-2.65,0-4.93-1.61-4.93-7v-.77c0-5.51,2.25-7.35,5.8-7.35a13.45,13.45,0,0,1,3.09.44c0,.45-.12,1.09-.12,1.09l-.21.11a13.7,13.7,0,0,0-2.64-.36c-2.93,0-4.4,1.44-4.4,6.2v.66c0,4.49,1.59,5.71,3.63,5.71A4.25,4.25,0,0,0,198.32,108.57Z"/><path class="cls-2" d="M195.42,111.14c-2.36,0-5.18-1.26-5.18-7.26v-.77c0-5.18,1.92-7.59,6-7.59a13.35,13.35,0,0,1,3.15.45.24.24,0,0,1,.18.25,10.19,10.19,0,0,1-.12,1.1.24.24,0,0,1-.12.18l-.21.12a.32.32,0,0,1-.17,0,13.38,13.38,0,0,0-2.59-.35c-2.5,0-4.16,1-4.16,5.95v.66c0,4.9,1.94,5.47,3.39,5.47a3.86,3.86,0,0,0,2.43-.91v-5.8a.25.25,0,0,1,.25-.24h1.49a.25.25,0,0,1,.25.24v8a.25.25,0,0,1-.25.24h-.87a.25.25,0,0,1-.24-.18l-.15-.58A5.33,5.33,0,0,1,195.42,111.14ZM196.29,96c-3.79,0-5.56,2.25-5.56,7.1v.77c0,4.49,1.58,6.77,4.69,6.77a4.7,4.7,0,0,0,3.1-1.16.28.28,0,0,1,.23,0,.24.24,0,0,1,.17.17l.21.77h.44v-7.47h-1v5.66a.26.26,0,0,1-.1.2l0,0a4.33,4.33,0,0,1-2.79,1.06c-2.61,0-3.88-1.94-3.88-5.95v-.66c0-4.57,1.35-6.44,4.65-6.44a13.59,13.59,0,0,1,2.61.34h0c0-.16.06-.47.08-.74A13.15,13.15,0,0,0,196.29,96Z"/><path class="cls-2" d="M202.35,110.63V95.14h1.49v5.22h0a6,6,0,0,1,3.89-1.5c2.05,0,3.32,1.28,3.32,3.49v8.28h-1.5v-8c0-1.77-.87-2.46-2.23-2.46a5.76,5.76,0,0,0-3.53,1.42v9.07Z"/><path class="cls-2" d="M211.1,110.87h-1.5a.24.24,0,0,1-.24-.24v-8c0-1.51-.63-2.21-2-2.21a5.46,5.46,0,0,0-3.28,1.29v8.95a.25.25,0,0,1-.25.24h-1.49a.25.25,0,0,1-.25-.24V95.14a.25.25,0,0,1,.25-.24h1.49a.25.25,0,0,1,.25.24V99.9a6.11,6.11,0,0,1,3.69-1.28,3.38,3.38,0,0,1,3.56,3.73v8.28A.24.24,0,0,1,211.1,110.87Zm-1.25-.49h1v-8c0-2.06-1.11-3.25-3.07-3.25a5.78,5.78,0,0,0-3.73,1.45.25.25,0,0,1-.16.06h0a.25.25,0,0,1-.24-.25v-5h-1v15h1v-8.82a.22.22,0,0,1,.09-.19,6,6,0,0,1,3.68-1.47c1.62,0,2.48.93,2.48,2.7Z"/><path class="cls-2" d="M218.12,98.86c2.86,0,4.52,2,4.52,5.55v.93c0,3.52-1.66,5.55-4.52,5.55h-.18c-2.86,0-4.52-2-4.52-5.55v-.93c0-3.52,1.66-5.55,4.52-5.55Zm3,5.29c0-2.37-.92-4-3.11-4s-3.11,1.64-3.11,4v1.48c0,2.39.92,4,3.11,4s3.11-1.59,3.11-4Z"/><path class="cls-2" d="M218.12,111.14h-.18c-3,0-4.76-2.17-4.76-5.8v-.93c0-3.63,1.78-5.79,4.76-5.79h.18c3,0,4.76,2.16,4.76,5.79v.93C222.88,109,221.1,111.14,218.12,111.14Zm-.18-12c-2.71,0-4.27,1.94-4.27,5.31v.93c0,3.37,1.56,5.31,4.27,5.31h.18c2.72,0,4.27-1.94,4.27-5.31v-.93c0-3.37-1.55-5.31-4.27-5.31Zm.09,10.75c-2.16,0-3.35-1.5-3.35-4.22v-1.48c0-2.74,1.19-4.25,3.35-4.25s3.36,1.51,3.36,4.25v1.48C221.39,108.35,220.19,109.85,218,109.85Zm0-9.46c-2.37,0-2.86,2-2.86,3.76v1.48c0,2.48,1,3.74,2.86,3.74s2.87-1.26,2.87-3.74v-1.48C220.9,102.43,220.4,100.39,218,100.39Z"/><path class="cls-2" d="M224.78,109.48l.23-.16a14.6,14.6,0,0,0,2.81.29c2,0,3.06-.73,3.06-2.19,0-1-.55-1.61-2.25-2l-1.34-.29c-1.87-.4-2.92-1.08-2.92-3s1.12-3.32,4.42-3.32a15.28,15.28,0,0,1,2.58.29c-.05.44-.09,1-.12,1.13l-.23.1a15.07,15.07,0,0,0-2.23-.24c-2.26,0-2.93.84-2.93,2,0,.95.72,1.48,1.94,1.74l1.36.29c2.32.49,3.22,1.57,3.22,3.21,0,2.23-1.5,3.47-4.49,3.47a14.73,14.73,0,0,1-3-.28C224.83,110.19,224.78,109.48,224.78,109.48Z"/><path class="cls-2" d="M227.89,111.14a14.41,14.41,0,0,1-3-.3.25.25,0,0,1-.19-.2c-.07-.42-.11-1.12-.11-1.15a.24.24,0,0,1,.1-.22l.24-.15a.23.23,0,0,1,.18,0,13.77,13.77,0,0,0,2.76.29c1.9,0,2.82-.64,2.82-2,0-.78-.35-1.37-2.07-1.75l-1.33-.29c-1.62-.35-3.12-1-3.12-3.2,0-1.07.46-3.56,4.67-3.56a15.87,15.87,0,0,1,2.63.29.24.24,0,0,1,.19.26c0,.17,0,.35-.05.53,0,.41-.05.57-.07.64a.24.24,0,0,1-.13.15l-.23.12a.41.41,0,0,1-.16,0,13.43,13.43,0,0,0-2.18-.24c-2.38,0-2.68,1-2.68,1.79,0,.48.18,1.17,1.74,1.51l1.36.28c2.33.49,3.41,1.59,3.41,3.45C232.62,109.12,231.8,111.14,227.89,111.14Zm-2.78-.74a14.59,14.59,0,0,0,2.78.25c2.82,0,4.25-1.09,4.25-3.23,0-1.61-.94-2.53-3-3l-1.36-.29c-1.42-.3-2.13-1-2.13-2,0-1.54,1-2.28,3.17-2.28a15.09,15.09,0,0,1,2.2.23l0,0c0-.11,0-.3,0-.46l0-.3a13.94,13.94,0,0,0-2.31-.25c-2.7,0-4.18,1.09-4.18,3.08,0,1.56.74,2.3,2.73,2.72l1.34.29c1.71.38,2.45,1,2.45,2.23s-.58,2.43-3.31,2.43a14.93,14.93,0,0,1-2.76-.27l0,0C225.05,109.79,225.08,110.12,225.11,110.4Z"/><path class="cls-2" d="M233.53,99.12h1.73l.35-2.65h1.15v2.65h3.06v1.29h-3.06v7.23c0,1.55.69,2,1.68,2a5.72,5.72,0,0,0,1.17-.13l.21.11v1.08a5.64,5.64,0,0,1-1.54.22c-2.05,0-3-1-3-3.21v-7.27h-1.73Z"/><path class="cls-2" d="M238.28,111.14c-2.2,0-3.26-1.13-3.26-3.46v-7h-1.49a.24.24,0,0,1-.24-.24V99.12a.24.24,0,0,1,.24-.24h1.52l.31-2.44a.25.25,0,0,1,.25-.21h1.15a.24.24,0,0,1,.24.24v2.41h2.82a.24.24,0,0,1,.24.24v1.29a.24.24,0,0,1-.24.24H237v7c0,1.52.69,1.73,1.44,1.73a5.27,5.27,0,0,0,1.11-.13.28.28,0,0,1,.18,0l.2.11a.26.26,0,0,1,.13.22v1.08a.23.23,0,0,1-.17.23A5.59,5.59,0,0,1,238.28,111.14Zm-4.5-11h1.48a.25.25,0,0,1,.24.25v7.27c0,2,.86,3,2.78,3a5.72,5.72,0,0,0,1.3-.16v-.76a5.84,5.84,0,0,1-1.14.12c-1.3,0-1.93-.72-1.93-2.21v-7.23a.25.25,0,0,1,.25-.25h2.82v-.79h-2.82a.25.25,0,0,1-.25-.25V96.71h-.69l-.32,2.45a.24.24,0,0,1-.24.21h-1.48Z"/><path class="cls-2" d="M251.66,110.63l-4.29-6.73H246v6.73h-1.5V96H246v6.59h1.4l4.2-6.59h1.68l-4.59,7.21c.72,1.24,4,6.17,4.7,7.39Z"/><path class="cls-2" d="M253.39,110.87h-1.73a.24.24,0,0,1-.21-.11l-4.21-6.61h-1v6.48a.24.24,0,0,1-.24.24h-1.5a.24.24,0,0,1-.24-.24V96a.25.25,0,0,1,.24-.25H246a.25.25,0,0,1,.24.25v6.35h1l4.12-6.48a.24.24,0,0,1,.21-.12h1.68a.24.24,0,0,1,.21.13.25.25,0,0,1,0,.25l-4.5,7.08c.42.72,1.43,2.27,2.4,3.78s1.84,2.84,2.2,3.45a.23.23,0,0,1,.06.16A.24.24,0,0,1,253.39,110.87Zm-1.6-.49H253c-.43-.69-1.19-1.87-2-3.1-1-1.61-2.11-3.27-2.49-3.92a.25.25,0,0,1,0-.25l4.34-6.84h-1.1l-4.12,6.48a.25.25,0,0,1-.21.11H246a.24.24,0,0,1-.24-.24V96.27h-1v14.11h1V103.9a.24.24,0,0,1,.24-.24h1.38a.26.26,0,0,1,.21.11Z"/><path class="cls-2" d="M255.71,95.45a1,1,0,1,1-1,1A1,1,0,0,1,255.71,95.45ZM255,99.12h1.5v11.51H255Z"/><path class="cls-2" d="M256.47,110.87H255a.24.24,0,0,1-.24-.24V99.12a.24.24,0,0,1,.24-.24h1.5a.24.24,0,0,1,.24.24v11.51A.24.24,0,0,1,256.47,110.87Zm-1.25-.49h1v-11h-1Zm.49-12.74A1.22,1.22,0,1,1,257,96.43,1.2,1.2,0,0,1,255.71,97.64Zm0-1.94a.73.73,0,1,0,.77.73A.7.7,0,0,0,255.71,95.7Z"/><path class="cls-2" d="M258.31,99.12H260l.34-2.65h1.15v2.65h3.07v1.29h-3.07v7.23c0,1.55.7,2,1.69,2a5.72,5.72,0,0,0,1.17-.13l.21.11v1.08a5.67,5.67,0,0,1-1.55.22c-2.05,0-3-1-3-3.21v-7.27h-1.73Z"/><path class="cls-2" d="M263.05,111.14c-2.19,0-3.26-1.13-3.26-3.46v-7h-1.48a.24.24,0,0,1-.24-.24V99.12a.24.24,0,0,1,.24-.24h1.52l.31-2.44a.25.25,0,0,1,.24-.21h1.15a.24.24,0,0,1,.25.24v2.41h2.82a.24.24,0,0,1,.24.24v1.29a.24.24,0,0,1-.24.24h-2.82v7c0,1.52.69,1.73,1.44,1.73a5.27,5.27,0,0,0,1.11-.13.25.25,0,0,1,.17,0l.21.11a.26.26,0,0,1,.13.22v1.08a.24.24,0,0,1-.17.23A5.7,5.7,0,0,1,263.05,111.14Zm-4.5-11H260a.25.25,0,0,1,.24.25v7.27c0,2,.86,3,2.77,3a5.55,5.55,0,0,0,1.3-.16v-.76a5.71,5.71,0,0,1-1.13.12c-1.3,0-1.93-.72-1.93-2.21v-7.23a.25.25,0,0,1,.24-.25h2.82v-.79h-2.82a.25.25,0,0,1-.24-.25V96.71h-.69l-.32,2.45a.25.25,0,0,1-.24.21h-1.49Z"/><path class="cls-2" d="M273.37,110.38a7,7,0,0,1-2.62.51c-3.09,0-4.77-1.52-4.77-5.68v-.33c0-4.43,1.73-6,4.91-6a7.46,7.46,0,0,1,2.25.33c0,.42-.16,1.09-.16,1.09l-.16.1a9.49,9.49,0,0,0-1.93-.24c-2.05,0-3.41.82-3.41,4.76v.31c0,3.83,1.68,4.4,3.36,4.4a7.84,7.84,0,0,0,2.19-.4l.18.11A10,10,0,0,1,273.37,110.38Z"/><path class="cls-2" d="M270.75,111.14c-3.42,0-5-1.89-5-5.93v-.33c0-4.27,1.63-6.26,5.15-6.26a7.84,7.84,0,0,1,2.33.34.26.26,0,0,1,.17.26c-.05.42-.16,1.07-.17,1.1a.27.27,0,0,1-.1.16l-.16.1a.21.21,0,0,1-.2,0,9.57,9.57,0,0,0-1.87-.23c-2,0-3.17.75-3.17,4.51v.31c0,3.66,1.58,4.16,3.12,4.16A7.38,7.38,0,0,0,273,109a.24.24,0,0,1,.2,0l.19.11a.29.29,0,0,1,.11.16c0,.11.12.65.17,1.09a.26.26,0,0,1-.15.25A7.23,7.23,0,0,1,270.75,111.14Zm.14-12c-3.27,0-4.66,1.73-4.66,5.78v.33c0,3.81,1.35,5.44,4.52,5.44a7.12,7.12,0,0,0,2.36-.42c0-.29-.09-.59-.12-.75a8,8,0,0,1-2.15.37c-1.68,0-3.61-.52-3.61-4.64v-.31c0-3.55,1.06-5,3.66-5a9.88,9.88,0,0,1,1.87.22c0-.16.08-.48.11-.76A7.6,7.6,0,0,0,270.89,99.1Z"/><path class="cls-2" d="M275.28,110.63V95.14h1.5v5.22h.05a6,6,0,0,1,3.89-1.5c2,0,3.32,1.28,3.32,3.49v8.28h-1.5v-8c0-1.77-.88-2.46-2.23-2.46a5.72,5.72,0,0,0-3.53,1.42v9.07Z"/><path class="cls-2" d="M284,110.87h-1.5a.25.25,0,0,1-.25-.24v-8c0-1.51-.63-2.21-2-2.21a5.46,5.46,0,0,0-3.28,1.29v8.95a.25.25,0,0,1-.25.24h-1.5a.24.24,0,0,1-.24-.24V95.14a.24.24,0,0,1,.24-.24h1.5a.25.25,0,0,1,.25.24V99.9a6.06,6.06,0,0,1,3.69-1.28,3.38,3.38,0,0,1,3.56,3.73v8.28A.24.24,0,0,1,284,110.87Zm-1.26-.49h1v-8c0-2.06-1.12-3.25-3.07-3.25a5.84,5.84,0,0,0-3.74,1.45.22.22,0,0,1-.15.06h-.05a.25.25,0,0,1-.24-.25v-5h-1v15h1v-8.82a.22.22,0,0,1,.09-.19,6,6,0,0,1,3.68-1.47c1.62,0,2.47.93,2.47,2.7Z"/><path class="cls-2" d="M287.86,105.43c0,3.16,1.45,4.18,3.64,4.18a7.47,7.47,0,0,0,2.83-.62l.23.11s.09.66.12,1a6.77,6.77,0,0,1-3.41.79c-3.11,0-4.91-1.77-4.91-5.68v-.78c0-3.51,1.89-5.57,4.56-5.57h.16c2.44,0,4,1.46,4,4.53v.36a15.05,15.05,0,0,1-.13,1.68Zm0-1.15h5.83v-1c0-2.5-1.32-3.14-2.63-3.14h-.16c-1.59,0-3,1.11-3,3.85Z"/><path class="cls-2" d="M291.27,111.14c-3.37,0-5.15-2.06-5.15-5.93v-.78c0-3.53,1.88-5.81,4.8-5.81h.16c2.72,0,4.28,1.74,4.28,4.77v.36a15.59,15.59,0,0,1-.14,1.71.25.25,0,0,1-.24.21h-6.87c.06,2.55,1.11,3.7,3.39,3.7a6.77,6.77,0,0,0,2.55-.54l.21-.08a.37.37,0,0,1,.18,0l.23.11a.26.26,0,0,1,.14.22h0a.87.87,0,0,0,0,.11c0,.21.08.62.1.87a.26.26,0,0,1-.07.19A6.66,6.66,0,0,1,291.27,111.14Zm-.35-12c-2.62,0-4.31,2.1-4.31,5.33v.78c0,3.61,1.56,5.44,4.66,5.44a7,7,0,0,0,3.15-.68c0-.23-.06-.53-.08-.7h0l-.09,0a7.34,7.34,0,0,1-2.73.56c-2.61,0-3.89-1.44-3.89-4.42a.25.25,0,0,1,.25-.25h6.9a12.48,12.48,0,0,0,.11-1.43v-.36c0-2.76-1.35-4.29-3.79-4.29Zm2.77,5.42h-5.83a.25.25,0,0,1-.25-.24V104c0-3,1.7-4.09,3.29-4.09h.16c1.07,0,2.87.44,2.87,3.38v1A.24.24,0,0,1,293.69,104.52ZM288.1,104h5.34v-.76c0-1.92-.8-2.89-2.38-2.89h-.16c-1.75,0-2.8,1.34-2.8,3.6Z"/><path class="cls-2" d="M297.53,110.63V99.12h.92l.44,1.38A6.25,6.25,0,0,1,303,98.86c2.09,0,3.31,1.3,3.31,3.49v8.28h-1.49v-8c0-1.77-.88-2.46-2.24-2.46a5.71,5.71,0,0,0-3.52,1.42v9.07Z"/><path class="cls-2" d="M306.28,110.87h-1.49a.25.25,0,0,1-.25-.24v-8c0-1.51-.63-2.21-2-2.21a5.48,5.48,0,0,0-3.28,1.29v8.95a.24.24,0,0,1-.24.24h-1.5a.24.24,0,0,1-.24-.24V99.12a.24.24,0,0,1,.24-.24h.92a.26.26,0,0,1,.24.17l.32,1a6.31,6.31,0,0,1,4-1.46c2.23,0,3.56,1.39,3.56,3.73v8.28A.25.25,0,0,1,306.28,110.87Zm-1.25-.49h1v-8c0-2.06-1.12-3.25-3.07-3.25a6,6,0,0,0-3.92,1.58.27.27,0,0,1-.23,0,.23.23,0,0,1-.16-.16l-.38-1.2h-.5v11h1v-8.82a.22.22,0,0,1,.09-.19,5.94,5.94,0,0,1,3.67-1.47c1.62,0,2.48.93,2.48,2.7Z"/><path class="cls-2" d="M175.15,115h3.15c2.58,0,3.84,1.18,3.84,3.37v.15a2.49,2.49,0,0,1-1.4,2.61v.08c1.44.46,1.79,1.62,1.79,2.91v.15c0,1.67-.79,3.37-3.26,3.37h-4.12Zm1.26,1v4.69h2.68a1.69,1.69,0,0,0,1.79-1.91v-.42c0-1.54-.82-2.36-2.68-2.36Zm0,5.69v4.85h2.66a2,2,0,0,0,2.2-2.2v-.5a1.93,1.93,0,0,0-2.18-2.15Z"/><path class="cls-2" d="M179.27,127.64h-4.15v-12.7h3.18a4.24,4.24,0,0,1,2.9.88,3.2,3.2,0,0,1,1,2.52v.15a2.53,2.53,0,0,1-1.4,2.62v0c1.22.39,1.79,1.33,1.79,2.93v.15a3.75,3.75,0,0,1-.72,2.33A3.09,3.09,0,0,1,179.27,127.64Zm-4.1,0h4.1a3,3,0,0,0,3.24-3.35v-.15c0-1.59-.57-2.51-1.77-2.89h0v-.11h0a2.5,2.5,0,0,0,1.39-2.59v-.15c0-2.22-1.29-3.35-3.82-3.35h-3.13Zm3.9-1h-2.68v-4.89h2.7a2,2,0,0,1,2.2,2.17v.5A2,2,0,0,1,179.07,126.58Zm-2.64,0h2.64a2,2,0,0,0,2.17-2.18v-.5a1.91,1.91,0,0,0-2.15-2.12h-2.66Zm2.66-5.8h-2.7V116h1.81c1.82,0,2.7.78,2.7,2.38v.42A1.72,1.72,0,0,1,179.09,120.74Zm-2.66,0h2.66a1.67,1.67,0,0,0,1.77-1.89v-.42c0-1.57-.87-2.34-2.66-2.34h-1.77Z"/><path class="cls-2" d="M190,121.25c0-1.8-.57-2.72-2.76-2.72a9.17,9.17,0,0,0-2.53.38l-.16-.13c0-.1.14-.82.18-1a9,9,0,0,1,2.6-.38c2.92,0,3.93,1.3,3.93,3.83v4.06c0,1,.33,1.35,1,1.46l.31.06.08.13c0,.14-.2.75-.2.75a1.46,1.46,0,0,1-.62.13A1.74,1.74,0,0,1,190,126h0a3.56,3.56,0,0,1-3.15,1.82,2.9,2.9,0,0,1-3-3v-.09c0-1.77,1-2.84,3.1-3.09l3.06-.36Zm0,3.55v-2.4l-2.73.33c-1.63.19-2.17.92-2.17,2v.1a1.82,1.82,0,0,0,1.94,1.93A3.81,3.81,0,0,0,190,124.8Z"/><path class="cls-2" d="M191.76,127.87a1.76,1.76,0,0,1-1.77-1.82h0a3.58,3.58,0,0,1-3.16,1.82,3,3,0,0,1-3-3v-.09c0-1.82,1-2.87,3.13-3.11l3-.36v-.08c0-1.66-.46-2.7-2.73-2.7a8.7,8.7,0,0,0-2.52.39h0l-.17-.15h0c0-.1.14-.84.18-1v0h0a9.31,9.31,0,0,1,2.61-.38c2.77,0,4,1.15,4,3.85v4.06c0,1.06.35,1.33.95,1.44l.33.06.08.15h0c0,.13-.19.74-.19.74v0h0A1.34,1.34,0,0,1,191.76,127.87ZM189.94,126h.1v0a1.71,1.71,0,0,0,1.72,1.8,1.29,1.29,0,0,0,.6-.13c0-.08.15-.59.19-.72l-.06-.12-.3-.06c-.62-.11-1-.39-1-1.48v-4.06c0-2.67-1.16-3.81-3.9-3.81a9.08,9.08,0,0,0-2.58.38c0,.18-.16.83-.17,1l.13.12a9.36,9.36,0,0,1,2.53-.38c2.31,0,2.78,1,2.78,2.74v.12h0l-3.05.37c-2.08.24-3.09,1.24-3.09,3.06v.09a2.89,2.89,0,0,0,3,2.93,3.51,3.51,0,0,0,3.12-1.81Zm-2.94.76a1.86,1.86,0,0,1-2-2v-.1c0-1.19.7-1.82,2.2-2l2.75-.32v2.42h0A3.7,3.7,0,0,1,187,126.76Zm2.93-4.33-2.69.32c-1.47.17-2.16.79-2.16,2v.1a1.81,1.81,0,0,0,1.92,1.91,3.66,3.66,0,0,0,2.93-1.92Z"/><path class="cls-2" d="M194.13,127.61v-10h.78l.37,1.19a5.22,5.22,0,0,1,3.44-1.42c1.77,0,2.8,1.13,2.8,3v7.16h-1.27v-7c0-1.54-.74-2.13-1.88-2.13a4.75,4.75,0,0,0-3,1.23v7.85Z"/><path class="cls-2" d="M201.54,127.64h-1.31v-7c0-1.4-.63-2.11-1.86-2.11a4.78,4.78,0,0,0-3,1.22v7.87h-1.31v-10h.82l.36,1.16a5.2,5.2,0,0,1,3.43-1.4c1.77,0,2.82,1.14,2.82,3Zm-1.26,0h1.21v-7.14c0-1.88-1-3-2.77-3a5.23,5.23,0,0,0-3.43,1.41l0,0-.38-1.21h-.73v9.92h1.21v-7.84h0a4.88,4.88,0,0,1,3-1.23c1.27,0,1.91.72,1.91,2.15Z"/><path class="cls-2" d="M207.06,117.42a3.44,3.44,0,0,1,2.58,1,2.49,2.49,0,0,1,1.86-.8h.3v1l-.16.13-.25,0a1.89,1.89,0,0,0-1.25.42,3.33,3.33,0,0,1,.39,1.61c0,2.34-1.55,3.34-3.47,3.34h-.24a4.24,4.24,0,0,1-1.4-.23,2.36,2.36,0,0,0-.58,1.32c0,.59.41,1,1.17,1h2.23c2.1,0,3.11,1.15,3.11,2.5v.15c0,1.4-1,2.82-3.93,2.82h-.58c-2.47,0-3.65-1.12-3.65-2.49v-.06a2.48,2.48,0,0,1,1.34-2.09v0a1.69,1.69,0,0,1-.86-1.49,3.42,3.42,0,0,1,.9-2,3.06,3.06,0,0,1-1.23-2.7,3.27,3.27,0,0,1,3.48-3.37ZM206,127.33a3.26,3.26,0,0,1-.39,0,2,2,0,0,0-1.13,1.68c0,1,.84,1.65,2.49,1.65h.39c2,0,2.76-.67,2.76-1.74v-.08c0-.82-.53-1.49-2-1.49Zm-1.36-6.6v.14a2.05,2.05,0,0,0,2.33,2.22,2,2,0,0,0,2.33-2.22v-.14a2.33,2.33,0,0,0-4.66,0Z"/><path class="cls-2" d="M207.42,131.7h-.58c-2.71,0-3.68-1.3-3.68-2.51v-.06a2.49,2.49,0,0,1,1.34-2.1v0a1.72,1.72,0,0,1-.85-1.5,3.33,3.33,0,0,1,.88-2,3.12,3.12,0,0,1-1.21-2.71,3.3,3.3,0,0,1,3.5-3.39h.24a3.48,3.48,0,0,1,2.58,1,2.46,2.46,0,0,1,1.86-.79h.32v1l-.17.14h-.05l-.21,0a1.89,1.89,0,0,0-1.22.41,3.38,3.38,0,0,1,.39,1.6,3.19,3.19,0,0,1-1,2.56,3.67,3.67,0,0,1-2.47.8h-.24a4.18,4.18,0,0,1-1.39-.23,2.28,2.28,0,0,0-.57,1.3c0,.61.43,1,1.15,1h2.23c2.31,0,3.13,1.35,3.13,2.52v.15C211.37,130.23,210.34,131.7,207.42,131.7Zm-.6-14.26a3.26,3.26,0,0,0-3.45,3.35,3.07,3.07,0,0,0,1.21,2.68l0,0v0a3.29,3.29,0,0,0-.89,2,1.67,1.67,0,0,0,.84,1.47h0v.06h0a2.44,2.44,0,0,0-1.33,2.07v.06c0,1.52,1.39,2.46,3.63,2.46h.58a4.53,4.53,0,0,0,3-.88,2.49,2.49,0,0,0,.88-1.91v-.15c0-1.5-1.22-2.47-3.09-2.47H206c-.75,0-1.19-.38-1.19-1a2.33,2.33,0,0,1,.58-1.34h0a3.9,3.9,0,0,0,1.39.23h.24a3.1,3.1,0,0,0,3.45-3.31,3.38,3.38,0,0,0-.39-1.6v0h0a1.94,1.94,0,0,1,1.26-.42h.24l.14-.11v-1h-.27a2.43,2.43,0,0,0-1.84.8l0,0,0,0a3.42,3.42,0,0,0-2.56-1Zm.51,13.23h-.39c-1.6,0-2.51-.61-2.51-1.68a2,2,0,0,1,1.14-1.7h0a3.48,3.48,0,0,0,.39,0h2.13c1.75,0,2,1,2,1.52v.08C210.11,130.09,209.2,130.67,207.33,130.67Zm-1.75-3.34a2,2,0,0,0-1.11,1.66c0,1,.88,1.63,2.47,1.63h.39c1.84,0,2.73-.56,2.73-1.72v-.08c0-.95-.69-1.47-2-1.47H206A2.54,2.54,0,0,1,205.58,127.33Zm1.36-4.22a2.07,2.07,0,0,1-2.36-2.24v-.14a2.36,2.36,0,0,1,4.71,0v.14A2.05,2.05,0,0,1,206.94,123.11Zm0-4.63a2.09,2.09,0,0,0-2.31,2.25v.14a2.31,2.31,0,0,0,4.62,0v-.14A2.12,2.12,0,0,0,206.94,118.48Z"/><path class="cls-2" d="M214.56,114.2v11.11c0,1.13.36,1.42,1.07,1.42a3,3,0,0,0,.6-.06l.15.16v.86a3.5,3.5,0,0,1-1,.15c-1.45,0-2-.88-2-2.47V114.2Z"/><path class="cls-2" d="M215.33,127.87c-1.41,0-2.06-.8-2.06-2.5V114.18h1.31v11.13c0,1.17.4,1.4,1,1.4a2.79,2.79,0,0,0,.59-.06h0l.18.17v.89h0A3.4,3.4,0,0,1,215.33,127.87Zm-2-13.65v11.15c0,1.67.64,2.45,2,2.45a3.32,3.32,0,0,0,1-.15v-.83l-.14-.14a3.12,3.12,0,0,1-.59.06c-.68,0-1.1-.24-1.1-1.45V114.22Z"/><path class="cls-2" d="M223.53,121.25c0-1.8-.56-2.72-2.76-2.72a9.06,9.06,0,0,0-2.52.38l-.16-.13c0-.1.14-.82.18-1a8.93,8.93,0,0,1,2.6-.38c2.92,0,3.93,1.3,3.93,3.83v4.06c0,1,.33,1.35,1,1.46l.31.06.08.13-.2.75a1.46,1.46,0,0,1-.62.13,1.74,1.74,0,0,1-1.75-1.82h-.06a3.54,3.54,0,0,1-3.15,1.82,2.91,2.91,0,0,1-3-3v-.09c0-1.77,1-2.84,3.11-3.09l3.05-.36Zm0,3.55v-2.4l-2.72.33c-1.63.19-2.17.92-2.17,2v.1a1.82,1.82,0,0,0,1.94,1.93A3.78,3.78,0,0,0,223.53,124.8Z"/><path class="cls-2" d="M225.34,127.87a1.76,1.76,0,0,1-1.77-1.82h0a3.59,3.59,0,0,1-3.17,1.82,2.94,2.94,0,0,1-3-3v-.09c0-1.82,1.05-2.87,3.13-3.11l3-.36v-.08c0-1.66-.46-2.7-2.74-2.7a8.79,8.79,0,0,0-2.52.39h0l-.17-.15h0c0-.1.14-.84.17-1v0h0a9.31,9.31,0,0,1,2.61-.38c2.77,0,3.95,1.15,3.95,3.85v4.06c0,1.06.35,1.33,1,1.44l.32.06.09.15h0c0,.13-.19.74-.19.74v0h0A1.34,1.34,0,0,1,225.34,127.87ZM223.52,126h.09v0a1.71,1.71,0,0,0,1.72,1.8,1.33,1.33,0,0,0,.6-.13c0-.08.15-.59.19-.72l-.07-.12-.3-.06c-.61-.11-1-.39-1-1.48v-4.06c0-2.67-1.16-3.81-3.9-3.81a9,9,0,0,0-2.58.38c0,.18-.16.83-.17,1l.13.12a9.34,9.34,0,0,1,2.52-.38c2.32,0,2.79,1,2.79,2.74v.12h0l-3,.37c-2.08.24-3.09,1.24-3.09,3.06v.09a2.89,2.89,0,0,0,3,2.93,3.53,3.53,0,0,0,3.13-1.81Zm-2.94.76a1.86,1.86,0,0,1-2-2v-.1c0-1.19.7-1.82,2.2-2l2.75-.32v2.42h0A3.7,3.7,0,0,1,220.58,126.76Zm2.93-4.33-2.69.32c-1.47.17-2.16.79-2.16,2v.1a1.81,1.81,0,0,0,1.92,1.91,3.66,3.66,0,0,0,2.93-1.92Z"/><path class="cls-2" d="M234.84,114.2v11.11c0,1,.3,1.35,1,1.46l.32.06.07.13-.19.75a1.46,1.46,0,0,1-.62.13,1.71,1.71,0,0,1-1.73-1.74h-.1a3.56,3.56,0,0,1-3,1.74c-1.83,0-3.27-1.28-3.27-4.67v-.94c0-3.45,1.56-4.81,3.74-4.81a4.23,4.23,0,0,1,2.58.94V114.2Zm-6.31,8.89c0,2.34.66,3.64,2.14,3.64a3.87,3.87,0,0,0,2.91-1.93v-5.37a4,4,0,0,0-2.41-.9c-1.5,0-2.64.86-2.64,3.85Z"/><path class="cls-2" d="M235.39,127.87a1.74,1.74,0,0,1-1.75-1.74h-.07a3.63,3.63,0,0,1-3,1.74c-1.23,0-3.29-.61-3.29-4.7v-.94a5.63,5.63,0,0,1,1.06-3.72,3.36,3.36,0,0,1,2.7-1.11,4.29,4.29,0,0,1,2.56.91v-4.13h1.31v11.13c0,.94.25,1.32.95,1.44l.32.06.09.15h0l-.2.76h0A1.34,1.34,0,0,1,235.39,127.87Zm-1.84-1.79h.13v0a1.68,1.68,0,0,0,1.71,1.72,1.33,1.33,0,0,0,.6-.13l.19-.72-.07-.12-.3-.06c-.72-.12-1-.52-1-1.48V114.22H233.6v4.19l0,0a4.15,4.15,0,0,0-2.57-.94c-1.7,0-3.71.83-3.71,4.79v.94c0,3,1.15,4.65,3.24,4.65a3.58,3.58,0,0,0,3-1.73Zm-2.88.68c-1.44,0-2.17-1.24-2.17-3.67v-.71c0-2.61.88-3.87,2.67-3.87a3.86,3.86,0,0,1,2.39.88l0,0h0v5.38h0C232.66,126.12,231.7,126.76,230.67,126.76Zm.5-8.21c-1.76,0-2.62,1.26-2.62,3.83v.71c0,2.4.71,3.62,2.12,3.62,1,0,2-.63,2.89-1.92v-5.35h0A3.85,3.85,0,0,0,231.17,118.55Z"/><path class="cls-2" d="M238.57,123.11c0,2.74,1.23,3.62,3.08,3.62a6.54,6.54,0,0,0,2.39-.53l.19.09s.08.58.1.87a5.65,5.65,0,0,1-2.88.68c-2.62,0-4.14-1.53-4.14-4.92v-.67c0-3,1.59-4.83,3.85-4.83h.14c2,0,3.4,1.26,3.4,3.93v.3a12.2,12.2,0,0,1-.12,1.46Zm0-1h4.92v-.86c0-2.16-1.11-2.72-2.21-2.72h-.14c-1.34,0-2.57,1-2.57,3.33Z"/><path class="cls-2" d="M241.45,127.87a3.9,3.9,0,0,1-3.07-1.2,5.56,5.56,0,0,1-1.09-3.75v-.67c0-3,1.52-4.85,3.87-4.85h.14c2.2,0,3.42,1.4,3.42,3.95v.3a12.44,12.44,0,0,1-.12,1.46v0h-6c0,2.44,1,3.58,3.05,3.58a5.72,5.72,0,0,0,2.22-.48l.16-.06h0l.21.11h0l0,.11c0,.19.07.54.08.75v0h0A5.43,5.43,0,0,1,241.45,127.87Zm-.29-10.43c-2.32,0-3.82,1.89-3.82,4.81v.67c0,3.25,1.38,4.9,4.11,4.9a5.55,5.55,0,0,0,2.85-.68c0-.21-.06-.55-.08-.73a.58.58,0,0,1,0-.1l-.18-.09-.15.06a5.88,5.88,0,0,1-2.23.48c-2.12,0-3.1-1.16-3.1-3.65v0h6a12.56,12.56,0,0,0,.11-1.44v-.3c0-2.52-1.2-3.91-3.37-3.91Zm2.35,4.7h-5v-.28a3.8,3.8,0,0,1,.79-2.57,2.32,2.32,0,0,1,1.8-.78h.14c1,0,2.23.47,2.23,2.74Zm-4.91,0h4.87v-.84c0-2.23-1.19-2.7-2.19-2.7h-.14c-1.59,0-2.54,1.24-2.54,3.31Z"/><path class="cls-2" d="M246.5,126.62l.2-.14a12,12,0,0,0,2.37.25c1.69,0,2.58-.63,2.58-1.9,0-.86-.46-1.39-1.9-1.72l-1.13-.25c-1.57-.34-2.47-.94-2.47-2.57s1-2.87,3.73-2.87a12.65,12.65,0,0,1,2.18.25c0,.38-.08.9-.1,1l-.19.09a12.32,12.32,0,0,0-1.89-.21c-1.9,0-2.46.73-2.46,1.76,0,.83.6,1.29,1.63,1.52l1.14.25c2,.42,2.73,1.36,2.73,2.77,0,1.94-1.27,3-3.79,3a11.81,11.81,0,0,1-2.53-.25C246.54,127.23,246.5,126.62,246.5,126.62Z"/><path class="cls-2" d="M249.13,127.87a12.21,12.21,0,0,1-2.54-.25h0v0c-.06-.36-.1-1-.1-1h0l.21-.15h0a12.39,12.39,0,0,0,2.37.25c1.7,0,2.56-.63,2.56-1.88,0-.9-.55-1.39-1.89-1.7l-1.12-.25c-1.5-.32-2.49-.89-2.49-2.59a2.64,2.64,0,0,1,.83-2,4.26,4.26,0,0,1,2.92-.87,12.08,12.08,0,0,1,2.19.25h0v0c0,.14,0,.31,0,.46s0,.47,0,.52h0l-.21.11h0a12.49,12.49,0,0,0-1.88-.21c-1.66,0-2.44.56-2.44,1.74,0,.76.53,1.25,1.61,1.49l1.15.25c1.87.4,2.74,1.3,2.74,2.8C252.94,126.82,251.62,127.87,249.13,127.87Zm-2.51-.29a12.33,12.33,0,0,0,2.51.24c2.46,0,3.76-1,3.76-3,0-1.48-.86-2.35-2.7-2.75l-1.15-.25c-1.11-.25-1.65-.75-1.65-1.54,0-1.22.79-1.78,2.49-1.78a12.15,12.15,0,0,1,1.89.21l.17-.09c0-.06,0-.28.06-.51l0-.43a12.55,12.55,0,0,0-2.15-.25,4.2,4.2,0,0,0-2.89.87,2.59,2.59,0,0,0-.81,2c0,1.67,1,2.23,2.45,2.55l1.12.25c1.37.31,1.93.81,1.93,1.74,0,1.28-.88,1.93-2.61,1.93a12.76,12.76,0,0,1-2.37-.25l-.17.12C246.53,126.72,246.57,127.25,246.62,127.58Z"/><path class="cls-2" d="M254.82,127.61V114.2h1.26v4.52h0a5,5,0,0,1,3.29-1.3c1.73,0,2.79,1.11,2.79,3v7.16h-1.26v-7c0-1.54-.74-2.13-1.88-2.13a4.79,4.79,0,0,0-3,1.23v7.85Z"/><path class="cls-2" d="M262.23,127.64h-1.31v-7c0-1.4-.63-2.11-1.86-2.11a4.76,4.76,0,0,0-2.95,1.22v7.87H254.8V114.18h1.31v4.52h0a5.07,5.07,0,0,1,3.3-1.3c1.76,0,2.82,1.14,2.82,3Zm-1.26,0h1.21v-7.14c0-1.88-1-3-2.77-3a5,5,0,0,0-3.27,1.3h-.08v-4.53h-1.22v13.37h1.22v-7.84h0a4.88,4.88,0,0,1,3-1.23c1.26,0,1.91.72,1.91,2.15Z"/><path class="cls-2" d="M178.32,102.16a3.45,3.45,0,0,0-2,.67V99.74h-1.22v10.38H176l0-.12c0-.19.1-.4.16-.6a3,3,0,0,0,2.14.89c.78,0,2.6-.36,2.6-3.71v-.66C180.89,103.42,180,102.16,178.32,102.16Zm1.36,3.88v.51c0,1.75-.54,2.6-1.64,2.6a2.69,2.69,0,0,1-1.7-.82v-4.4a3.3,3.3,0,0,1,1.77-.63C178.92,103.3,179.68,103.63,179.68,106Z"/><path class="cls-2" d="M185.74,102.33l-1.56,5c-.08.25-.16.6-.22.88-.07-.29-.17-.66-.25-.89l-1.75-5h-1.25l2.67,7.64-.28.85c-.35,1.1-.53,1.21-.89,1.21a1.71,1.71,0,0,1-.38,0l-.08,0-.23.21-.12.8.1.05a2,2,0,0,0,.82.16c.93,0,1.48-.58,1.94-2.08l2.73-8.76Z"/></g></g></svg>